<svg width="344" height="49" viewBox="0 0 344 49" fill="none" xmlns="http://www.w3.org/2000/svg">
<g filter="url(#filter0_d_9_9)">
<path d="M34.302 28.778C34.302 30.7207 33.8473 32.3947 32.938 33.8C32.07 35.164 30.6233 36.4247 28.598 37.582C27.234 38.4087 25.6427 39.0287 23.824 39.442C22.0053 39.8553 20.166 40.062 18.306 40.062C16.4047 40.062 14.0487 39.442 11.238 38.202C9.21267 37.21 7.60067 36.032 6.402 34.668C5.24467 33.304 4.666 31.816 4.666 30.204C4.666 29.088 4.914 28.282 5.41 27.786C5.906 27.2487 6.712 26.98 7.828 26.98C8.40667 26.98 9.006 27.228 9.626 27.724C10.246 28.1787 10.618 28.6333 10.742 29.088C11.3207 30.7827 12.3333 32.0847 13.78 32.994C15.2267 33.862 17.0247 34.296 19.174 34.296C21.654 34.296 23.7207 33.8413 25.374 32.932C27.0687 32.0227 27.916 30.8033 27.916 29.274C27.916 27.786 27.0067 26.4633 25.188 25.306C23.3693 24.1487 21.5093 23.3427 19.608 22.888C16.88 22.144 14.462 21.2553 12.354 20.222C10.1633 19.1473 8.53067 17.8247 7.456 16.254C6.38133 14.6833 5.844 13.03 5.844 11.294C5.844 9.682 6.402 8.04933 7.518 6.396C8.634 4.70133 9.95667 3.482 11.486 2.738C12.3127 2.32467 13.718 1.89067 15.702 1.436C17.7273 0.939999 19.1947 0.692 20.104 0.692C21.3027 0.692 22.6253 0.836666 24.072 1.126C25.5187 1.41533 26.6967 1.82867 27.606 2.366C29.4247 3.39933 30.768 4.32933 31.636 5.156C32.504 5.98266 32.938 7.016 32.938 8.256C32.938 9 32.6487 9.66133 32.07 10.24C31.5327 10.8187 30.582 11.108 29.218 11.108C28.8873 11.108 28.5567 10.9633 28.226 10.674C27.8953 10.3847 27.482 9.95067 26.986 9.372C26.3247 8.504 25.684 7.92533 25.064 7.636C24.444 7.42933 23.5347 7.202 22.336 6.954C21.1787 6.706 20.1453 6.582 19.236 6.582C18.244 6.582 17.2107 6.78866 16.136 7.202C15.0613 7.61533 14.152 8.21466 13.408 9C12.7053 9.744 12.354 10.612 12.354 11.604C12.354 12.4307 12.726 13.154 13.47 13.774C14.2553 14.3527 15.1853 14.828 16.26 15.2C17.5 15.696 18.8433 16.13 20.29 16.502C22.1913 17.0807 23.7413 17.618 24.94 18.114C26.18 18.5687 27.3787 19.1473 28.536 19.85C30.5613 21.0487 32.0287 22.2887 32.938 23.57C33.8473 24.81 34.302 26.546 34.302 28.778ZM66.6985 31.568C67.4838 31.568 68.0625 31.878 68.4345 32.498C68.8478 33.0767 69.0545 33.7173 69.0545 34.42C69.0545 35.288 68.9098 35.908 68.6205 36.28C68.3725 36.6107 67.8765 36.962 67.1325 37.334C65.3965 38.1607 63.2471 38.822 60.6845 39.318C58.1218 39.814 55.3731 40.062 52.4385 40.062C48.7598 40.062 46.0525 39.442 44.3165 38.202C42.6218 36.962 41.5678 35.474 41.1545 33.738C40.7825 31.9607 40.5965 29.646 40.5965 26.794C40.5965 23.7353 40.7205 20.7387 40.9685 17.804C41.2165 14.828 41.6505 11.046 42.2705 6.458C42.5598 4.474 43.3451 3.048 44.6265 2.18C45.9078 1.27067 47.3131 0.815998 48.8425 0.815998C50.1238 0.815998 52.2111 0.774665 55.1045 0.692L60.4985 0.629997C62.7305 0.629997 64.3425 0.691997 65.3345 0.815998C66.5745 1.064 67.4838 1.35333 68.0625 1.684C68.6825 1.97333 68.9925 2.49 68.9925 3.234C68.9925 4.06066 68.7031 4.86667 68.1245 5.652C67.5871 6.43733 66.7605 6.83 65.6445 6.83C64.3631 6.83 62.5238 6.74733 60.1265 6.582C57.7291 6.41666 55.9311 6.334 54.7325 6.334C53.6991 6.334 52.6865 6.396 51.6945 6.52C50.5371 6.60266 49.7105 6.74733 49.2145 6.954C48.7185 7.16067 48.4291 7.512 48.3465 8.008C47.7678 12.2653 47.4785 15.4067 47.4785 17.432C48.4291 17.556 49.3591 17.618 50.2685 17.618C51.4258 17.618 52.6658 17.556 53.9885 17.432C55.3111 17.308 56.1585 17.2253 56.5305 17.184C58.7211 16.9773 60.6018 16.874 62.1725 16.874C63.0818 16.874 63.7638 17.0393 64.2185 17.37C64.7145 17.7007 64.9625 18.1553 64.9625 18.734C64.9625 19.6433 64.7145 20.346 64.2185 20.842C63.7638 21.338 62.9371 21.71 61.7385 21.958C60.2918 22.2473 58.4938 22.4747 56.3445 22.64C54.2365 22.8053 52.1698 22.888 50.1445 22.888C49.4418 22.888 48.4705 22.8467 47.2305 22.764C47.1065 25.2853 47.0445 27.6207 47.0445 29.77C47.0445 32.7047 48.9871 34.172 52.8725 34.172C54.9391 34.172 56.6545 34.0273 58.0185 33.738C59.3825 33.4487 60.9531 33.0353 62.7305 32.498C64.3838 31.878 65.7065 31.568 66.6985 31.568ZM78.6494 0.629997C79.4348 0.629997 80.1374 0.836665 80.7574 1.25C81.4188 1.66333 81.8114 2.38667 81.9354 3.42C82.4314 6.68533 82.7414 9.95066 82.8654 13.216C83.0308 16.44 83.1134 20.098 83.1134 24.19C83.1134 25.926 82.9688 29.088 82.6794 33.676C84.4981 33.8413 85.9034 33.924 86.8954 33.924C87.5981 33.924 89.1894 33.8207 91.6694 33.614C93.1161 33.4073 94.3768 33.304 95.4514 33.304C96.4434 33.304 97.3528 33.4073 98.1794 33.614C99.0061 33.7793 99.8534 34.0687 100.721 34.482C101.589 34.978 102.023 35.7427 102.023 36.776C102.023 37.6027 101.755 38.3467 101.217 39.008C100.721 39.6693 100.122 40 99.4194 40C98.9234 40 98.1381 39.9173 97.0634 39.752C95.1208 39.4627 93.2608 39.318 91.4834 39.318C90.9048 39.318 90.2434 39.3593 89.4994 39.442C88.7968 39.4833 88.2801 39.504 87.9494 39.504C86.9574 39.628 85.9654 39.69 84.9734 39.69C82.9481 39.69 81.1294 39.5867 79.5174 39.38C78.6908 39.2973 77.8641 38.9873 77.0374 38.45C76.2108 37.8713 75.7974 37.0447 75.7974 35.97C75.7974 35.35 75.8801 33.7587 76.0454 31.196C76.3348 26.9387 76.4794 23.694 76.4794 21.462C76.4794 19.726 76.3968 17.9073 76.2314 16.006C76.0661 14.1047 75.9628 12.906 75.9214 12.41C75.5494 8.89666 75.3634 6.00333 75.3634 3.73C75.3634 2.65533 75.6114 1.87 76.1074 1.374C76.6448 0.877997 77.4921 0.629997 78.6494 0.629997ZM135 36.032C135.042 36.9 134.938 37.52 134.69 37.892C134.442 38.2227 133.946 38.574 133.202 38.946C132.086 39.4833 130.764 39.8347 129.234 40C127.746 40.1653 125.824 40.248 123.468 40.248H119.252C115.574 40.248 112.846 39.628 111.068 38.388C109.291 37.1067 108.175 35.5773 107.72 33.8C107.266 32.0227 106.997 29.7287 106.914 26.918C106.873 25.9673 106.852 24.562 106.852 22.702C106.852 18.6513 107.204 13.2367 107.906 6.458C108.113 4.474 108.836 3.048 110.076 2.18C111.316 1.27067 112.722 0.815998 114.292 0.815998C115.574 0.815998 117.661 0.774665 120.554 0.692L126.01 0.629997C128.242 0.629997 129.854 0.691997 130.846 0.815998C132.086 1.064 133.016 1.35333 133.636 1.684C134.256 1.97333 134.587 2.49 134.628 3.234C134.628 4.06066 134.36 4.86667 133.822 5.652C133.285 6.43733 132.458 6.83 131.342 6.83C130.061 6.83 128.222 6.74733 125.824 6.582C123.427 6.41666 121.608 6.334 120.368 6.334C119.252 6.334 118.24 6.396 117.33 6.52C116.173 6.60266 115.346 6.74733 114.85 6.954C114.354 7.16067 114.086 7.512 114.044 8.008C113.59 12.5133 113.404 15.6547 113.486 17.432C114.437 17.556 115.388 17.618 116.338 17.618C117.289 17.618 118.591 17.5353 120.244 17.37C120.658 17.3287 121.174 17.2873 121.794 17.246C122.414 17.2047 123.117 17.184 123.902 17.184C124.357 17.184 125.08 17.2253 126.072 17.308L127.994 17.37C129.896 17.37 130.846 18.052 130.846 19.416C130.846 20.2427 130.619 20.904 130.164 21.4C129.71 21.896 128.904 22.268 127.746 22.516C126.176 22.8053 123.634 22.95 120.12 22.95H116.338C115.553 22.95 114.582 22.9087 113.424 22.826C113.383 23.57 113.362 24.6447 113.362 26.05C113.362 27.8687 113.383 29.15 113.424 29.894C113.548 32.7873 115.553 34.234 119.438 34.234C120.761 34.234 122.166 34.2753 123.654 34.358L125.948 34.42C127.023 34.42 127.912 34.3167 128.614 34.11C129.317 33.862 129.999 33.6553 130.66 33.49C131.363 33.2833 132.004 33.18 132.582 33.18C133.368 33.18 133.967 33.49 134.38 34.11C134.794 34.6887 135 35.3293 135 36.032Z" fill="#FBF9F9"/>
<path d="M165.726 19.044C168.743 19.416 170.975 20.3873 172.422 21.958C173.91 23.4873 174.654 25.3887 174.654 27.662C174.654 29.9353 173.806 32.0847 172.112 34.11C170.458 36.1353 168.33 37.706 165.726 38.822C164.568 39.2767 163.039 39.6073 161.138 39.814C159.278 40.0207 157.356 40.124 155.372 40.124C152.065 40.124 148.676 39.814 145.204 39.194C144.584 39.07 143.922 38.76 143.22 38.264C142.558 37.768 142.228 37.0447 142.228 36.094C142.186 32.2913 142.042 27.0007 141.794 20.222L141.732 16.812C141.566 11.5213 141.484 7.36733 141.484 4.35C141.484 3.81267 141.794 3.19267 142.414 2.49C143.075 1.746 143.86 1.33267 144.77 1.25C145.307 1.25 145.824 1.22933 146.32 1.188C150.99 0.733331 154.111 0.505998 155.682 0.505998C158.782 0.505998 161.51 0.815998 163.866 1.436C166.263 2.01466 168.247 3.08933 169.818 4.66C170.396 5.32133 170.872 6.16866 171.244 7.202C171.616 8.194 171.802 9.16533 171.802 10.116C171.843 12.1413 171.306 14.0013 170.19 15.696C169.115 17.3907 167.627 18.5067 165.726 19.044ZM156.054 5.776C154.648 5.776 153.181 5.85866 151.652 6.024C150.164 6.18933 148.903 6.396 147.87 6.644L148.242 18.362L150.474 18.3C154.07 17.928 156.715 17.618 158.41 17.37C159.484 17.122 160.538 16.6467 161.572 15.944C162.605 15.2 163.452 14.4353 164.114 13.65C164.816 12.8233 165.168 12.2033 165.168 11.79C165.168 11.17 165.044 10.55 164.796 9.93C164.548 9.26866 164.279 8.79333 163.99 8.504C162.874 7.42933 161.737 6.706 160.58 6.334C159.422 5.962 157.914 5.776 156.054 5.776ZM148.428 34.668C150.536 34.9573 152.54 35.102 154.442 35.102C158.616 35.102 161.902 34.5647 164.3 33.49C166.738 32.374 167.958 30.266 167.958 27.166C167.958 25.926 167.028 24.8927 165.168 24.066C163.308 23.2393 161.303 22.826 159.154 22.826C157.707 22.826 155.868 22.9913 153.636 23.322C151.858 23.57 150.122 23.7353 148.428 23.818C148.51 26.298 148.552 27.8687 148.552 28.53C148.552 29.8113 148.531 30.7827 148.49 31.444L148.428 34.668ZM209.656 39.07C209.119 38.3673 208.664 37.6027 208.292 36.776C207.92 35.908 207.527 34.8747 207.114 33.676C207.031 33.4693 206.783 32.8493 206.37 31.816C205.998 30.7827 205.564 29.894 205.068 29.15C202.464 29.522 200.335 29.708 198.682 29.708C197.773 29.708 196.76 29.6873 195.644 29.646C194.569 29.5633 193.763 29.522 193.226 29.522C191.159 29.3567 189.506 29.274 188.266 29.274C187.77 29.9353 187.336 30.638 186.964 31.382C186.633 32.126 186.199 33.242 185.662 34.73C184.918 36.8793 184.277 38.4087 183.74 39.318C183.368 39.938 182.645 40.248 181.57 40.248C180.661 40.248 179.813 40.062 179.028 39.69C178.284 39.2767 177.912 38.7187 177.912 38.016C178.243 36.4453 178.759 34.792 179.462 33.056C180.206 31.2787 181.26 28.9227 182.624 25.988L185.104 19.912C186.468 16.44 187.708 13.464 188.824 10.984C189.981 8.504 191.49 5.56933 193.35 2.18C193.598 1.684 194.011 1.27066 194.59 0.939997C195.169 0.567996 195.809 0.381996 196.512 0.381996C197.297 0.381996 197.855 0.443997 198.186 0.567998C198.558 0.650666 198.847 0.815999 199.054 1.064C199.261 1.27067 199.571 1.72533 199.984 2.428C201.389 4.61867 202.588 6.87133 203.58 9.186C204.613 11.5007 205.915 14.704 207.486 18.796L208.788 22.082C209.945 25.058 210.937 27.5587 211.764 29.584C212.632 31.568 213.583 33.3867 214.616 35.04C215.277 36.1147 215.608 36.8587 215.608 37.272C215.608 38.264 215.298 39.0287 214.678 39.566C214.099 40.062 213.335 40.31 212.384 40.31C211.185 40.31 210.276 39.8967 209.656 39.07ZM203.27 24.066C202.609 22.6607 201.658 20.222 200.418 16.75C199.137 13.03 197.855 10.0747 196.574 7.884C195.789 9.868 194.631 12.4307 193.102 15.572C192.069 17.5147 190.891 20.3253 189.568 24.004C192.213 24.3347 195.065 24.5 198.124 24.5C200.315 24.5 202.03 24.3553 203.27 24.066ZM246.958 5.156C246.958 3.95733 247.227 2.924 247.764 2.056C248.343 1.14667 249.19 0.692 250.306 0.692C251.257 0.692 252.104 0.878 252.848 1.25C253.592 1.622 253.964 2.242 253.964 3.11C253.964 4.80467 253.881 7.18133 253.716 10.24C253.551 13.216 253.468 15.4273 253.468 16.874C253.468 19.1473 253.551 22.1853 253.716 25.988C253.881 29.6253 253.964 32.2913 253.964 33.986C253.964 35.35 253.943 36.3627 253.902 37.024C253.902 37.6853 253.53 38.3467 252.786 39.008C252.083 39.628 250.988 39.938 249.5 39.938C248.715 39.938 248.033 39.814 247.454 39.566C246.917 39.2767 246.545 38.9667 246.338 38.636C244.395 36.28 241.564 32.2707 237.844 26.608C233.669 20.284 230.259 15.448 227.614 12.1C227.945 15.076 228.11 18.7133 228.11 23.012C228.11 24.9133 228.069 27.3933 227.986 30.452C227.945 33.4693 227.862 35.4533 227.738 36.404C227.573 37.6027 227.201 38.5327 226.622 39.194C226.085 39.814 225.217 40.124 224.018 40.124C223.109 40.124 222.427 39.876 221.972 39.38C221.559 38.8427 221.311 37.9333 221.228 36.652C221.187 34.9573 221.29 32.4153 221.538 29.026C221.579 28.4887 221.641 27.5587 221.724 26.236C221.807 24.9133 221.848 23.7353 221.848 22.702C221.848 19.85 221.703 16.5847 221.414 12.906C221.166 8.85533 221.042 5.85867 221.042 3.916C221.042 2.924 221.393 2.15933 222.096 1.622C222.84 1.08467 223.687 0.815998 224.638 0.815998C225.465 0.815998 226.333 1.02266 227.242 1.436C230.797 5.9 235.612 12.5547 241.688 21.4L247.516 30.328C247.557 29.6667 247.578 28.7367 247.578 27.538C247.578 25.43 247.537 23.1567 247.454 20.718C247.371 18.2793 247.309 16.626 247.268 15.758C247.061 11.7487 246.958 8.21466 246.958 5.156ZM293.136 5.59C293.756 6.334 294.19 6.93333 294.438 7.388C294.686 7.84266 294.81 8.27666 294.81 8.69C294.81 9.186 294.479 9.76466 293.818 10.426C293.198 11.0873 292.578 11.418 291.958 11.418C291.131 11.418 290.47 11.294 289.974 11.046C289.478 10.798 289.065 10.4053 288.734 9.868C288.486 9.496 287.907 9.02067 286.998 8.442C286.089 7.822 285.055 7.30533 283.898 6.892C282.741 6.43733 281.666 6.21 280.674 6.21C279.062 6.21 277.388 6.60267 275.652 7.388C273.957 8.132 272.593 9.10333 271.56 10.302C270.692 11.3767 269.907 12.9887 269.204 15.138C268.501 17.246 268.15 19.2507 268.15 21.152C268.15 23.5493 268.667 25.7607 269.7 27.786C270.775 29.77 272.304 31.3613 274.288 32.56C276.313 33.7587 278.731 34.358 281.542 34.358C283.071 34.358 284.373 34.1307 285.448 33.676C286.564 33.2213 287.763 32.56 289.044 31.692C290.036 31.072 290.801 30.6173 291.338 30.328C291.917 30.0387 292.557 29.894 293.26 29.894C293.921 29.894 294.541 30.1833 295.12 30.762C295.74 31.3407 296.05 31.9193 296.05 32.498C296.05 33.5727 295.409 34.6473 294.128 35.722C292.557 37.0033 291.111 37.9747 289.788 38.636C288.465 39.256 287.101 39.6693 285.696 39.876C284.332 40.0413 282.575 40.124 280.426 40.124C277.574 40.124 274.681 39.442 271.746 38.078C268.853 36.714 266.621 35.0607 265.05 33.118C264.223 31.9193 263.417 30.204 262.632 27.972C261.888 25.6987 261.516 23.8593 261.516 22.454C261.516 18.9407 262.115 15.5513 263.314 12.286C264.513 9.02067 266.228 6.396 268.46 4.412C269.948 3.048 271.787 2.056 273.978 1.436C276.21 0.774665 278.359 0.443999 280.426 0.443999C283.071 0.443999 285.345 0.877999 287.246 1.746C289.189 2.614 291.152 3.89533 293.136 5.59ZM321.568 40.062C318.84 40.062 316.339 39.7313 314.066 39.07C311.793 38.3673 309.933 37.3547 308.486 36.032C305.841 33.676 303.981 31.1133 302.906 28.344C301.873 25.5333 301.356 21.958 301.356 17.618C301.356 16.7087 301.48 15.8613 301.728 15.076C302.017 14.2493 302.389 13.34 302.844 12.348C302.968 12.0587 303.154 11.604 303.402 10.984C303.691 10.3227 303.877 9.72333 303.96 9.186C304.745 7.73933 306.068 6.35467 307.928 5.032C309.829 3.70933 311.875 2.65533 314.066 1.87C316.257 1.04333 318.179 0.629997 319.832 0.629997C327.809 0.629997 333.513 3.358 336.944 8.814C338.887 11.9967 339.858 15.2 339.858 18.424C339.858 22.5987 339.093 26.2567 337.564 29.398C336.076 32.5393 334.009 34.978 331.364 36.714C329.711 37.706 328.016 38.512 326.28 39.132C324.544 39.752 322.973 40.062 321.568 40.062ZM307.804 22.206C307.763 24.4793 308.238 26.36 309.23 27.848C310.263 29.2947 311.875 30.886 314.066 32.622C315.719 33.242 316.877 33.6553 317.538 33.862C318.199 34.0687 318.923 34.172 319.708 34.172C322.395 34.172 324.771 33.614 326.838 32.498C328.905 31.382 330.496 29.8527 331.612 27.91C332.769 25.9673 333.348 23.7973 333.348 21.4C333.348 18.2587 332.997 15.7787 332.294 13.96C331.591 12.1413 330.331 10.5087 328.512 9.062C327.561 8.27667 326.342 7.698 324.854 7.326C323.407 6.954 321.857 6.768 320.204 6.768C316.236 6.768 313.157 8.17333 310.966 10.984C308.817 13.7533 307.763 17.494 307.804 22.206Z" fill="#BCA43C"/>
<path d="M32.938 33.8L32.0984 33.2567L32.0943 33.2631L32.938 33.8ZM28.598 37.582L28.1019 36.7138L28.0907 36.7201L28.0797 36.7268L28.598 37.582ZM23.824 39.442L24.0456 40.4171L23.824 39.442ZM11.238 38.202L10.7981 39.1001L10.8161 39.1089L10.8344 39.1169L11.238 38.202ZM6.402 34.668L5.63949 35.315L5.64511 35.3216L5.65084 35.3281L6.402 34.668ZM5.41 27.786L6.11711 28.4931L6.13124 28.479L6.1448 28.4643L5.41 27.786ZM9.626 27.724L9.00131 28.5049L9.0177 28.518L9.03464 28.5304L9.626 27.724ZM10.742 29.088L9.77724 29.3511L9.7855 29.3814L9.79565 29.4111L10.742 29.088ZM13.78 32.994L13.2478 33.8406L13.2566 33.8462L13.2655 33.8515L13.78 32.994ZM25.374 32.932L24.9012 32.0508L24.8921 32.0558L25.374 32.932ZM25.188 25.306L25.7249 24.4623L25.7249 24.4623L25.188 25.306ZM19.608 22.888L19.3449 23.8528L19.3601 23.8569L19.3754 23.8606L19.608 22.888ZM12.354 20.222L11.9136 21.1198L11.9138 21.1199L12.354 20.222ZM7.456 16.254L6.63069 16.8187L6.63069 16.8187L7.456 16.254ZM7.518 6.396L8.3469 6.95551L8.35317 6.94599L7.518 6.396ZM11.486 2.738L11.9235 3.63729L11.9332 3.63243L11.486 2.738ZM15.702 1.436L15.9254 2.41073L15.9326 2.40907L15.9399 2.4073L15.702 1.436ZM24.072 1.126L24.2681 0.145417L24.2681 0.145417L24.072 1.126ZM27.606 2.366L27.0973 3.22692L27.1046 3.23125L27.112 3.23545L27.606 2.366ZM32.07 10.24L31.3629 9.53289L31.3498 9.54598L31.3372 9.55955L32.07 10.24ZM28.226 10.674L27.5675 11.4266L27.5675 11.4266L28.226 10.674ZM26.986 9.372L26.1906 9.97804L26.208 10.0009L26.2267 10.0228L26.986 9.372ZM25.064 7.636L25.4869 6.72982L25.4348 6.7055L25.3802 6.68732L25.064 7.636ZM22.336 6.954L22.1265 7.93182L22.1334 7.93326L22.336 6.954ZM16.136 7.202L16.495 8.13534L16.495 8.13534L16.136 7.202ZM13.408 9L12.682 8.31226L12.681 8.31338L13.408 9ZM13.47 13.774L12.8298 14.5422L12.8528 14.5613L12.8768 14.5791L13.47 13.774ZM16.26 15.2L16.6314 14.2715L16.6094 14.2627L16.5871 14.255L16.26 15.2ZM20.29 16.502L20.5812 15.5453L20.5602 15.539L20.539 15.5335L20.29 16.502ZM24.94 18.114L24.5576 19.038L24.5765 19.0458L24.5957 19.0529L24.94 18.114ZM28.536 19.85L28.017 20.7048L28.0267 20.7106L28.536 19.85ZM32.938 23.57L32.1225 24.1487L32.127 24.1551L32.1316 24.1614L32.938 23.57ZM33.302 28.778C33.302 30.5595 32.8871 32.0379 32.0984 33.2567L33.7776 34.3433C34.8076 32.7514 35.302 30.8818 35.302 28.778H33.302ZM32.0943 33.2631C31.3436 34.4429 30.0444 35.6037 28.1019 36.7138L29.0941 38.4502C31.2023 37.2456 32.7964 35.8851 33.7817 34.3369L32.0943 33.2631ZM28.0797 36.7268C26.8216 37.4893 25.3337 38.0734 23.6024 38.4669L24.0456 40.4171C25.9517 39.9839 27.6464 39.328 29.1163 38.4372L28.0797 36.7268ZM23.6024 38.4669C21.8562 38.8637 20.0912 39.062 18.306 39.062V41.062C20.2408 41.062 22.1544 40.8469 24.0456 40.4171L23.6024 38.4669ZM18.306 39.062C16.6033 39.062 14.3942 38.5014 11.6416 37.2871L10.8344 39.1169C13.7031 40.3826 16.2061 41.062 18.306 41.062V39.062ZM11.6779 37.3039C9.74323 36.3564 8.24647 35.252 7.15317 34.0079L5.65084 35.3281C6.95487 36.812 8.6821 38.0636 10.7981 39.1001L11.6779 37.3039ZM7.16451 34.021C6.14251 32.8165 5.666 31.5526 5.666 30.204H3.666C3.666 32.0794 4.34682 33.7915 5.63949 35.315L7.16451 34.021ZM5.666 30.204C5.666 29.202 5.89371 28.7165 6.11711 28.4931L4.70289 27.0789C3.93429 27.8475 3.666 28.974 3.666 30.204H5.666ZM6.1448 28.4643C6.37116 28.2191 6.84518 27.98 7.828 27.98V25.98C6.57882 25.98 5.44084 26.2783 4.6752 27.1077L6.1448 28.4643ZM7.828 27.98C8.10805 27.98 8.49325 28.0984 9.00131 28.5049L10.2507 26.9431C9.51875 26.3576 8.70529 25.98 7.828 25.98V27.98ZM9.03464 28.5304C9.5788 28.9295 9.74002 29.2147 9.77724 29.3511L11.7068 28.8249C11.496 28.052 10.9132 27.4279 10.2174 26.9176L9.03464 28.5304ZM9.79565 29.4111C10.4445 31.3114 11.5974 32.8032 13.2478 33.8406L14.3122 32.1474C13.0693 31.3661 12.1968 30.254 11.6884 28.7649L9.79565 29.4111ZM13.2655 33.8515C14.9048 34.8351 16.8924 35.296 19.174 35.296V33.296C17.157 33.296 15.5486 32.8889 14.2945 32.1365L13.2655 33.8515ZM19.174 35.296C21.7713 35.296 24.0157 34.8203 25.8559 33.8082L24.8921 32.0558C23.4256 32.8624 21.5368 33.296 19.174 33.296V35.296ZM25.8468 33.8132C27.7676 32.7825 28.916 31.2715 28.916 29.274H26.916C26.916 30.3352 26.3698 31.2628 24.9012 32.0508L25.8468 33.8132ZM28.916 29.274C28.916 27.3058 27.6918 25.714 25.7249 24.4623L24.6511 26.1497C26.3215 27.2126 26.916 28.2662 26.916 29.274H28.916ZM25.7249 24.4623C23.8222 23.2515 21.8603 22.3984 19.8406 21.9154L19.3754 23.8606C21.1584 24.2869 22.9165 25.0458 24.6511 26.1497L25.7249 24.4623ZM19.8711 21.9232C17.1922 21.1926 14.8353 20.3246 12.7942 19.3241L11.9138 21.1199C14.0887 22.186 16.5678 23.0954 19.3449 23.8528L19.8711 21.9232ZM12.7944 19.3242C10.7159 18.3046 9.23481 17.0829 8.28131 15.6893L6.63069 16.8187C7.82653 18.5664 9.61077 19.9901 11.9136 21.1198L12.7944 19.3242ZM8.28131 15.6893C7.30899 14.2682 6.844 12.8091 6.844 11.294H4.844C4.844 13.2509 5.45368 15.0984 6.63069 16.8187L8.28131 15.6893ZM6.844 11.294C6.844 9.92422 7.31575 8.48303 8.34685 6.95547L6.68915 5.83652C5.48826 7.61563 4.844 9.43977 4.844 11.294H6.844ZM8.35317 6.94599C9.38955 5.37222 10.5844 4.28868 11.9235 3.63723L11.0485 1.83876C9.32896 2.67531 7.87845 4.03044 6.68283 5.84601L8.35317 6.94599ZM11.9332 3.63243C12.6449 3.27658 13.9491 2.86363 15.9254 2.41073L15.4786 0.461265C13.4869 0.917703 11.9804 1.37275 11.0388 1.84357L11.9332 3.63243ZM15.9399 2.4073C17.9612 1.91228 19.3259 1.692 20.104 1.692V-0.308C19.0634 -0.308 17.4935 -0.032278 15.4641 0.4647L15.9399 2.4073ZM20.104 1.692C21.2238 1.692 22.4796 1.82733 23.8759 2.10658L24.2681 0.145417C22.771 -0.153999 21.3815 -0.308 20.104 -0.308V1.692ZM23.8759 2.10658C25.2527 2.38194 26.3147 2.76449 27.0973 3.22692L28.1147 1.50507C27.0787 0.892845 25.7846 0.448722 24.2681 0.145417L23.8759 2.10658ZM27.112 3.23545C28.9039 4.25361 30.1654 5.13637 30.9463 5.88014L32.3257 4.43186C31.3706 3.52229 29.9454 2.54506 28.1 1.49654L27.112 3.23545ZM30.9463 5.88014C31.6086 6.51085 31.938 7.27905 31.938 8.256H33.938C33.938 6.75295 33.3994 5.45447 32.3257 4.43186L30.9463 5.88014ZM31.938 8.256C31.938 8.70701 31.7746 9.12117 31.3629 9.53289L32.7771 10.9471C33.5227 10.2015 33.938 9.29298 33.938 8.256H31.938ZM31.3372 9.55955C31.0882 9.82769 30.4943 10.108 29.218 10.108V12.108C30.6697 12.108 31.9771 11.8096 32.8028 10.9204L31.3372 9.55955ZM29.218 10.108C29.1997 10.108 29.0937 10.1044 28.8845 9.92142L27.5675 11.4266C28.0197 11.8222 28.575 12.108 29.218 12.108V10.108ZM28.8845 9.92142C28.6066 9.67826 28.2292 9.28578 27.7453 8.72121L26.2267 10.0228C26.7348 10.6156 27.1841 11.0911 27.5675 11.4266L28.8845 9.92142ZM27.7814 8.76596C27.0743 7.83789 26.3157 7.11657 25.4869 6.72982L24.6411 8.54218C25.0523 8.73409 25.575 9.17011 26.1906 9.97804L27.7814 8.76596ZM25.3802 6.68732C24.7037 6.46182 23.7487 6.22511 22.5386 5.97474L22.1334 7.93326C23.3206 8.17889 24.1843 8.39684 24.7478 8.58468L25.3802 6.68732ZM22.5455 5.97619C21.3387 5.71759 20.2332 5.582 19.236 5.582V7.582C20.0575 7.582 21.0186 7.6944 22.1265 7.9318L22.5455 5.97619ZM19.236 5.582C18.1032 5.582 16.9481 5.81823 15.777 6.26865L16.495 8.13534C17.4732 7.7591 18.3848 7.582 19.236 7.582V5.582ZM15.777 6.26865C14.5724 6.73197 13.5351 7.41184 12.682 8.31226L14.134 9.68774C14.7689 9.01749 15.5503 8.49869 16.495 8.13534L15.777 6.26865ZM12.681 8.31338C11.8091 9.2365 11.354 10.3479 11.354 11.604H13.354C13.354 10.8761 13.6015 10.2515 14.135 9.68662L12.681 8.31338ZM11.354 11.604C11.354 12.7797 11.9013 13.7685 12.8298 14.5422L14.1102 13.0058C13.5507 12.5395 13.354 12.0816 13.354 11.604H11.354ZM12.8768 14.5791C13.7554 15.2265 14.7784 15.7453 15.9329 16.145L16.5871 14.255C15.5923 13.9107 14.7552 13.4789 14.0632 12.9689L12.8768 14.5791ZM15.8886 16.1285C17.1728 16.6422 18.5575 17.089 20.041 17.4705L20.539 15.5335C19.1292 15.171 17.8272 14.7498 16.6314 14.2715L15.8886 16.1285ZM19.9988 17.4587C21.8836 18.0323 23.4001 18.559 24.5576 19.038L25.3224 17.19C24.0826 16.677 22.499 16.129 20.5812 15.5453L19.9988 17.4587ZM24.5957 19.0529C25.7734 19.4847 26.9137 20.0349 28.017 20.7048L29.055 18.9952C27.8437 18.2598 26.5866 17.6526 25.2843 17.1751L24.5957 19.0529ZM28.0267 20.7106C29.986 21.8702 31.3244 23.0242 32.1225 24.1487L33.7535 22.9913C32.7329 21.5531 31.1367 20.2272 29.0453 18.9894L28.0267 20.7106ZM32.1316 24.1614C32.8698 25.168 33.302 26.6665 33.302 28.778H35.302C35.302 26.4255 34.8249 24.452 33.7444 22.9786L32.1316 24.1614ZM68.4345 32.498L67.577 33.0125L67.5975 33.0467L67.6207 33.0792L68.4345 32.498ZM68.6205 36.28L67.8311 35.6661L67.8257 35.673L67.8205 35.68L68.6205 36.28ZM67.1325 37.334L67.5624 38.2369L67.5711 38.2327L67.5797 38.2284L67.1325 37.334ZM60.6845 39.318L60.8745 40.2998L60.6845 39.318ZM44.3165 38.202L43.7259 39.0091L43.7352 39.0157L44.3165 38.202ZM41.1545 33.738L40.1757 33.9429L40.1785 33.9563L40.1816 33.9696L41.1545 33.738ZM40.9685 17.804L41.9649 17.8882L41.965 17.887L40.9685 17.804ZM42.2705 6.458L41.2809 6.31368L41.2795 6.32408L42.2705 6.458ZM44.6265 2.18L45.1873 3.00792L45.1963 3.00181L45.2052 2.99551L44.6265 2.18ZM55.1045 0.692L55.093 -0.307934L55.0844 -0.307836L55.0759 -0.307592L55.1045 0.692ZM60.4985 0.629997V-0.370069L60.487 -0.369937L60.4985 0.629997ZM65.3345 0.815998L65.5306 -0.164583L65.4947 -0.171748L65.4585 -0.17628L65.3345 0.815998ZM68.0625 1.684L67.5663 2.55224L67.6022 2.57272L67.6396 2.59018L68.0625 1.684ZM68.1245 5.652L67.3194 5.0588L67.309 5.07288L67.2991 5.08732L68.1245 5.652ZM51.6945 6.52L51.7657 7.51746L51.7922 7.51557L51.8185 7.51228L51.6945 6.52ZM49.2145 6.954L48.8298 6.03092L48.8298 6.03092L49.2145 6.954ZM48.3465 8.008L47.3601 7.8436L47.3576 7.85842L47.3556 7.87331L48.3465 8.008ZM47.4785 17.432H46.4785V18.31L47.3491 18.4236L47.4785 17.432ZM56.5305 17.184L56.4365 16.1884L56.4283 16.1892L56.42 16.1901L56.5305 17.184ZM64.2185 17.37L63.6303 18.1787L63.6468 18.1907L63.6638 18.2021L64.2185 17.37ZM64.2185 20.842L63.5113 20.1349L63.496 20.1503L63.4813 20.1663L64.2185 20.842ZM61.7385 21.958L61.9346 22.9386L61.9411 22.9373L61.7385 21.958ZM56.3445 22.64L56.2678 21.6429L56.2663 21.6431L56.3445 22.64ZM47.2305 22.764L47.297 21.7662L46.2816 21.6985L46.2317 22.7149L47.2305 22.764ZM58.0185 33.738L57.8109 32.7598L57.8109 32.7598L58.0185 33.738ZM62.7305 32.498L63.0198 33.4552L63.0511 33.4458L63.0816 33.4343L62.7305 32.498ZM66.6985 32.568C67.1691 32.568 67.4037 32.7238 67.577 33.0125L69.2919 31.9835C68.7212 31.0322 67.7985 30.568 66.6985 30.568V32.568ZM67.6207 33.0792C67.9145 33.4905 68.0545 33.9284 68.0545 34.42H70.0545C70.0545 33.5062 69.7811 32.6628 69.2482 31.9168L67.6207 33.0792ZM68.0545 34.42C68.0545 35.2292 67.9093 35.5655 67.8311 35.6661L69.4098 36.8939C69.9102 36.2505 70.0545 35.3468 70.0545 34.42H68.0545ZM67.8205 35.68C67.7197 35.8143 67.4036 36.0804 66.6852 36.4396L67.5797 38.2284C68.3493 37.8436 69.0252 37.407 69.4205 36.88L67.8205 35.68ZM66.7025 36.4311C65.0645 37.2112 63.0015 37.851 60.4944 38.3362L60.8745 40.2998C63.4927 39.793 65.7284 39.1102 67.5624 38.2369L66.7025 36.4311ZM60.4944 38.3362C58.0015 38.8187 55.3171 39.062 52.4385 39.062V41.062C55.4292 41.062 58.242 40.8093 60.8745 40.2998L60.4944 38.3362ZM52.4385 39.062C48.8336 39.062 46.3802 38.4472 44.8977 37.3883L43.7352 39.0157C45.7247 40.4368 48.686 41.062 52.4385 41.062V39.062ZM44.907 37.395C43.3684 36.2692 42.4761 34.9716 42.1273 33.5064L40.1816 33.9696C40.6594 35.9764 41.8752 37.6548 43.7259 39.009L44.907 37.395ZM42.1332 33.5331C41.781 31.85 41.5965 29.6114 41.5965 26.794H39.5965C39.5965 29.6806 39.784 32.0714 40.1757 33.9429L42.1332 33.5331ZM41.5965 26.794C41.5965 23.7624 41.7194 20.7938 41.9649 17.8882L39.972 17.7198C39.7215 20.6835 39.5965 23.7083 39.5965 26.794H41.5965ZM41.965 17.887C42.211 14.9346 42.6426 11.1711 43.2614 6.59192L41.2795 6.32408C40.6583 10.9209 40.2219 14.7214 39.9719 17.721L41.965 17.887ZM43.26 6.60231C43.5215 4.8093 44.2025 3.67504 45.1873 3.00792L44.0656 1.35208C42.4877 2.42096 41.5981 4.13869 41.2809 6.31369L43.26 6.60231ZM45.2052 2.99551C46.3224 2.20268 47.5265 1.816 48.8425 1.816V-0.184002C47.0998 -0.184002 45.4932 0.338649 44.0477 1.36449L45.2052 2.99551ZM48.8425 1.816C50.1392 1.816 52.2389 1.77428 55.133 1.69159L55.0759 -0.307592C52.1833 -0.224948 50.1083 -0.184002 48.8425 -0.184002V1.816ZM55.1159 1.69193L60.5099 1.62993L60.487 -0.369937L55.093 -0.307934L55.1159 1.69193ZM60.4985 1.63C62.7267 1.63 64.285 1.6926 65.2104 1.80828L65.4585 -0.17628C64.3999 -0.308607 62.7342 -0.370003 60.4985 -0.370003V1.63ZM65.1383 1.79658C66.3497 2.03885 67.1307 2.30333 67.5663 2.55224L68.5586 0.815755C67.8368 0.403327 66.7992 0.0891401 65.5306 -0.164583L65.1383 1.79658ZM67.6396 2.59018C67.7942 2.66234 67.8635 2.7381 67.9025 2.803C67.9446 2.87322 67.9925 3.00088 67.9925 3.234H69.9925C69.9925 2.72311 69.8853 2.22045 69.6174 1.774C69.3464 1.32223 68.9507 0.99499 68.4853 0.777815L67.6396 2.59018ZM67.9925 3.234C67.9925 3.81069 67.795 4.4134 67.3194 5.0588L68.9295 6.2452C69.6113 5.31993 69.9925 4.31064 69.9925 3.234H67.9925ZM67.2991 5.08732C66.9825 5.55015 66.4961 5.83 65.6445 5.83V7.83C67.0249 7.83 68.1918 7.32451 68.9498 6.21668L67.2991 5.08732ZM65.6445 5.83C64.3979 5.83 62.5858 5.74923 60.1953 5.58437L60.0577 7.57963C62.4618 7.74543 64.3283 7.83 65.6445 7.83V5.83ZM60.1953 5.58437C57.7929 5.41869 55.9669 5.334 54.7325 5.334V7.334C55.8954 7.334 57.6653 7.41464 60.0577 7.57963L60.1953 5.58437ZM54.7325 5.334C53.659 5.334 52.6049 5.39841 51.5704 5.52772L51.8185 7.51228C52.768 7.39359 53.7392 7.334 54.7325 7.334V5.334ZM51.6232 5.52254C50.4534 5.6061 49.4865 5.75733 48.8298 6.03092L49.5991 7.87707C49.9344 7.73733 50.6209 7.59923 51.7657 7.51746L51.6232 5.52254ZM48.8298 6.03092C48.0422 6.35909 47.5039 6.98085 47.3601 7.8436L49.3328 8.1724C49.3544 8.04315 49.3947 7.96224 49.5991 7.87707L48.8298 6.03092ZM47.3556 7.87331C46.776 12.1373 46.4785 15.335 46.4785 17.432H48.4785C48.4785 15.4784 48.7596 12.3933 49.3373 8.14268L47.3556 7.87331ZM47.3491 18.4236C48.3404 18.5529 49.3136 18.618 50.2685 18.618V16.618C49.4046 16.618 48.5179 16.5591 47.6078 16.4404L47.3491 18.4236ZM50.2685 18.618C51.4611 18.618 52.7325 18.5541 54.0818 18.4276L53.8951 16.4364C52.599 16.5579 51.3905 16.618 50.2685 16.618V18.618ZM54.0818 18.4276C55.402 18.3039 56.2586 18.2204 56.6409 18.1779L56.42 16.1901C56.0583 16.2303 55.2203 16.3121 53.8951 16.4364L54.0818 18.4276ZM56.6244 18.1796C58.7951 17.9748 60.6428 17.874 62.1725 17.874V15.874C60.5608 15.874 58.6471 15.9799 56.4365 16.1884L56.6244 18.1796ZM62.1725 17.874C62.9903 17.874 63.4231 18.028 63.6303 18.1787L64.8066 16.5613C64.1045 16.0506 63.1733 15.874 62.1725 15.874V17.874ZM63.6638 18.2021C63.8916 18.354 63.9625 18.5016 63.9625 18.734H65.9625C65.9625 17.809 65.5373 17.0474 64.7732 16.5379L63.6638 18.2021ZM63.9625 18.734C63.9625 19.4601 63.7688 19.8774 63.5113 20.1349L64.9256 21.5491C65.6601 20.8146 65.9625 19.8265 65.9625 18.734H63.9625ZM63.4813 20.1663C63.2442 20.425 62.6757 20.7429 61.5358 20.9787L61.9411 22.9373C63.1986 22.6771 64.2834 22.251 64.9556 21.5177L63.4813 20.1663ZM61.5423 20.9774C60.1485 21.2562 58.3935 21.4794 56.2678 21.6429L56.4212 23.6371C58.5941 23.4699 60.435 23.2385 61.9346 22.9386L61.5423 20.9774ZM56.2663 21.6431C54.1831 21.8064 52.1426 21.888 50.1445 21.888V23.888C52.197 23.888 54.2898 23.8042 56.4226 23.6369L56.2663 21.6431ZM50.1445 21.888C49.4746 21.888 48.5288 21.8483 47.297 21.7662L47.1639 23.7618C48.4121 23.845 49.409 23.888 50.1445 23.888V21.888ZM46.2317 22.7149C46.107 25.2498 46.0445 27.6018 46.0445 29.77H48.0445C48.0445 27.6396 48.1059 25.3208 48.2292 22.8131L46.2317 22.7149ZM46.0445 29.77C46.0445 31.4787 46.6247 32.9072 47.8987 33.8695C49.1199 34.7918 50.8325 35.172 52.8725 35.172V33.172C51.0271 33.172 49.8257 32.8185 49.1042 32.2735C48.4355 31.7685 48.0445 30.996 48.0445 29.77H46.0445ZM52.8725 35.172C54.9789 35.172 56.7696 35.0252 58.226 34.7162L57.8109 32.7598C56.5393 33.0295 54.8993 33.172 52.8725 33.172V35.172ZM58.226 34.7162C59.6248 34.4195 61.2238 33.9982 63.0198 33.4552L62.4411 31.5408C60.6825 32.0725 59.1401 32.4778 57.8109 32.7598L58.226 34.7162ZM63.0816 33.4343C64.6961 32.8289 65.8856 32.568 66.6985 32.568V30.568C65.5273 30.568 64.0714 30.9271 62.3793 31.5617L63.0816 33.4343ZM80.7574 1.25L80.2027 2.08205L80.215 2.09021L80.2274 2.098L80.7574 1.25ZM81.9354 3.42L80.9426 3.53914L80.9444 3.55469L80.9468 3.57017L81.9354 3.42ZM82.8654 13.216L81.8661 13.254L81.8668 13.2672L82.8654 13.216ZM82.6794 33.676L81.6814 33.6131L81.6202 34.5838L82.5889 34.6719L82.6794 33.676ZM91.6694 33.614L91.7525 34.6105L91.7818 34.6081L91.8109 34.6039L91.6694 33.614ZM98.1794 33.614L97.9369 34.5841L97.96 34.5899L97.9833 34.5946L98.1794 33.614ZM100.721 34.482L101.218 33.6138L101.185 33.5952L101.151 33.5791L100.721 34.482ZM101.217 39.008L100.441 38.3774L100.429 38.3925L100.417 38.408L101.217 39.008ZM97.0634 39.752L97.2155 38.7636L97.2107 38.7629L97.0634 39.752ZM89.4994 39.442L89.5582 40.4403L89.5841 40.4388L89.6099 40.4359L89.4994 39.442ZM87.9494 39.504V38.504H87.8872L87.8254 38.5117L87.9494 39.504ZM79.5174 39.38L79.6446 38.3881L79.6308 38.3863L79.6169 38.385L79.5174 39.38ZM77.0374 38.45L76.464 39.2692L76.478 39.2791L76.4924 39.2884L77.0374 38.45ZM76.0454 31.196L75.0477 31.1282L75.0475 31.1316L76.0454 31.196ZM75.9214 12.41L76.918 12.327L76.9171 12.3158L76.9159 12.3047L75.9214 12.41ZM76.1074 1.374L75.4292 0.639196L75.4145 0.652756L75.4003 0.666892L76.1074 1.374ZM78.6494 1.63C79.2486 1.63 79.7561 1.78429 80.2027 2.08205L81.3121 0.417951C80.5188 -0.110959 79.621 -0.370003 78.6494 -0.370003V1.63ZM80.2274 2.098C80.5525 2.30117 80.8417 2.69869 80.9426 3.53914L82.9283 3.30085C82.7812 2.07464 82.285 1.02549 81.2874 0.402001L80.2274 2.098ZM80.9468 3.57017C81.4372 6.79873 81.7436 10.0266 81.8662 13.2539L83.8647 13.1781C83.7393 9.87474 83.4257 6.57194 82.9241 3.26982L80.9468 3.57017ZM81.8668 13.2672C82.031 16.4704 82.1134 20.1108 82.1134 24.19H84.1134C84.1134 20.0852 84.0305 16.4096 83.8641 13.1648L81.8668 13.2672ZM82.1134 24.19C82.1134 25.8903 81.9709 29.0228 81.6814 33.6131L83.6775 33.7389C83.9666 29.1532 84.1134 25.9617 84.1134 24.19H82.1134ZM82.5889 34.6719C84.4172 34.8381 85.8579 34.924 86.8954 34.924V32.924C85.9489 32.924 84.579 32.8446 82.77 32.6801L82.5889 34.6719ZM86.8954 34.924C87.6482 34.924 89.2845 34.8162 91.7525 34.6105L91.5864 32.6175C89.0944 32.8251 87.548 32.924 86.8954 32.924V34.924ZM91.8109 34.6039C93.2261 34.4018 94.4375 34.304 95.4514 34.304V32.304C94.3161 32.304 93.0061 32.4129 91.528 32.6241L91.8109 34.6039ZM95.4514 34.304C96.3747 34.304 97.2013 34.4002 97.9369 34.5841L98.422 32.6439C97.5043 32.4144 96.5122 32.304 95.4514 32.304V34.304ZM97.9833 34.5946C98.7188 34.7417 99.4877 35.0021 100.292 35.3849L101.151 33.5791C100.219 33.1352 99.2934 32.817 98.3756 32.6334L97.9833 34.5946ZM100.225 35.3502C100.769 35.6609 101.023 36.0866 101.023 36.776H103.023C103.023 35.3987 102.41 34.2951 101.218 33.6138L100.225 35.3502ZM101.023 36.776C101.023 37.3654 100.839 37.8884 100.441 38.3774L101.994 39.6386C102.671 38.805 103.023 37.8399 103.023 36.776H101.023ZM100.417 38.408C100.073 38.8678 99.7494 39 99.4194 39V41C100.495 41 101.37 40.4709 102.017 39.608L100.417 38.408ZM99.4194 39C99.0054 39 98.2846 38.9281 97.2155 38.7636L96.9114 40.7404C97.9916 40.9066 98.8415 41 99.4194 41V39ZM97.2107 38.7629C95.2243 38.4671 93.3149 38.318 91.4834 38.318V40.318C93.2066 40.318 95.0172 40.4583 96.9161 40.7411L97.2107 38.7629ZM91.4834 38.318C90.859 38.318 90.1597 38.3625 89.389 38.4481L89.6099 40.4359C90.3272 40.3562 90.9505 40.318 91.4834 40.318V38.318ZM89.4407 38.4437C88.7409 38.4849 88.2489 38.504 87.9494 38.504V40.504C88.3113 40.504 88.8526 40.4818 89.5582 40.4403L89.4407 38.4437ZM87.8254 38.5117C86.8742 38.6306 85.9237 38.69 84.9734 38.69V40.69C86.0072 40.69 87.0406 40.6254 88.0735 40.4963L87.8254 38.5117ZM84.9734 38.69C82.9808 38.69 81.2057 38.5883 79.6446 38.3881L79.3903 40.3719C81.0532 40.5851 82.9154 40.69 84.9734 40.69V38.69ZM79.6169 38.385C78.9763 38.3209 78.3001 38.0781 77.5824 37.6116L76.4924 39.2884C77.4281 39.8966 78.4053 40.2738 79.4179 40.375L79.6169 38.385ZM77.6109 37.6308C77.0714 37.2531 76.7974 36.7434 76.7974 35.97H74.7974C74.7974 37.346 75.3501 38.4895 76.464 39.2692L77.6109 37.6308ZM76.7974 35.97C76.7974 35.3897 76.8772 33.8358 77.0434 31.2604L75.0475 31.1316C74.883 33.6815 74.7974 35.3103 74.7974 35.97H76.7974ZM77.0431 31.2638C77.3329 27.0003 77.4794 23.7286 77.4794 21.462H75.4794C75.4794 23.6594 75.3367 26.8771 75.0477 31.1282L77.0431 31.2638ZM77.4794 21.462C77.4794 19.6944 77.3953 17.8467 77.2277 15.9194L75.2352 16.0926C75.3983 17.9679 75.4794 19.7576 75.4794 21.462H77.4794ZM77.2277 15.9194C77.0623 14.0174 76.9591 12.8208 76.918 12.327L74.9249 12.493C74.9664 12.9912 75.0699 14.1919 75.2352 16.0926L77.2277 15.9194ZM76.9159 12.3047C76.5458 8.80949 76.3634 5.95453 76.3634 3.73H74.3634C74.3634 6.05214 74.5531 8.98384 74.927 12.5153L76.9159 12.3047ZM76.3634 3.73C76.3634 2.78229 76.5853 2.31036 76.8145 2.0811L75.4003 0.666892C74.6376 1.42964 74.3634 2.52838 74.3634 3.73H76.3634ZM76.7857 2.1088C77.0563 1.85903 77.6035 1.63 78.6494 1.63V-0.370003C77.3807 -0.370003 76.2332 -0.103034 75.4292 0.639196L76.7857 2.1088ZM135 36.032H134V36.0558L134.001 36.0796L135 36.032ZM134.69 37.892L135.49 38.492L135.507 38.4698L135.522 38.4467L134.69 37.892ZM133.202 38.946L133.636 39.847L133.643 39.8438L133.649 39.8404L133.202 38.946ZM129.234 40L129.127 39.0058L129.124 39.0061L129.234 40ZM111.068 38.388L110.483 39.1992L110.49 39.2037L110.496 39.2081L111.068 38.388ZM107.72 33.8L106.751 34.0478L106.751 34.0478L107.72 33.8ZM106.914 26.918L107.914 26.8886L107.913 26.8746L106.914 26.918ZM107.906 6.458L106.912 6.35439L106.912 6.35489L107.906 6.458ZM110.076 2.18L110.65 2.99923L110.659 2.99292L110.668 2.9864L110.076 2.18ZM120.554 0.692L120.543 -0.307936L120.534 -0.307838L120.526 -0.307592L120.554 0.692ZM126.01 0.629997V-0.370068L125.999 -0.369939L126.01 0.629997ZM130.846 0.815998L131.042 -0.164583L131.006 -0.171748L130.97 -0.17628L130.846 0.815998ZM133.636 1.684L133.166 2.56635L133.189 2.5789L133.213 2.59018L133.636 1.684ZM134.628 3.234H135.628V3.20624L135.627 3.17853L134.628 3.234ZM133.822 5.652L132.997 5.08731L132.997 5.08732L133.822 5.652ZM117.33 6.52L117.401 7.51746L117.433 7.51517L117.465 7.51083L117.33 6.52ZM114.85 6.954L114.466 6.03092L114.466 6.03092L114.85 6.954ZM114.044 8.008L115.039 8.10841L115.04 8.09973L115.041 8.09104L114.044 8.008ZM113.486 17.432L112.487 17.4785L112.526 18.3153L113.357 18.4236L113.486 17.432ZM120.244 17.37L120.344 18.365L120.344 18.365L120.244 17.37ZM121.794 17.246L121.861 18.2438L121.861 18.2438L121.794 17.246ZM126.072 17.308L125.989 18.3045L126.014 18.3067L126.04 18.3075L126.072 17.308ZM127.994 17.37L127.962 18.3695L127.978 18.37H127.994V17.37ZM130.164 21.4L130.901 22.0757L130.901 22.0757L130.164 21.4ZM127.746 22.516L127.927 23.4995L127.942 23.4968L127.956 23.4938L127.746 22.516ZM113.424 22.826L113.495 21.8285L112.482 21.7562L112.426 22.7705L113.424 22.826ZM113.424 29.894L114.423 29.8512L114.423 29.8385L113.424 29.894ZM123.654 34.358L123.599 35.3565L123.613 35.3572L123.627 35.3576L123.654 34.358ZM125.948 34.42L125.921 35.4196L125.935 35.42H125.948V34.42ZM128.614 34.11L128.896 35.0694L128.922 35.0619L128.947 35.053L128.614 34.11ZM130.66 33.49L130.903 34.4601L130.923 34.4552L130.942 34.4494L130.66 33.49ZM134.38 34.11L133.548 34.6647L133.557 34.6781L133.566 34.6912L134.38 34.11ZM134.001 36.0796C134.041 36.9047 133.919 37.246 133.858 37.3373L135.522 38.4467C135.957 37.794 136.042 36.8953 135.999 35.9844L134.001 36.0796ZM133.89 37.292C133.789 37.4263 133.473 37.6924 132.755 38.0516L133.649 39.8404C134.419 39.4556 135.095 39.019 135.49 38.492L133.89 37.292ZM132.768 38.045C131.776 38.5226 130.569 38.8499 129.127 39.0058L129.342 40.9942C130.958 40.8195 132.396 40.4441 133.636 39.847L132.768 38.045ZM129.124 39.0061C127.687 39.1658 125.806 39.248 123.468 39.248V41.248C125.843 41.248 127.805 41.1649 129.345 40.9939L129.124 39.0061ZM123.468 39.248H119.252V41.248H123.468V39.248ZM119.252 39.248C115.65 39.248 113.169 38.6344 111.64 37.5679L110.496 39.2081C112.522 40.6216 115.497 41.248 119.252 41.248V39.248ZM111.653 37.5768C110.027 36.4047 109.075 35.0604 108.689 33.5522L106.751 34.0478C107.275 36.0943 108.555 37.8086 110.483 39.1992L111.653 37.5768ZM108.689 33.5522C108.26 31.8734 107.995 29.6601 107.914 26.8886L105.915 26.9474C105.998 29.7972 106.271 32.1719 106.751 34.0478L108.689 33.5522ZM107.913 26.8746C107.873 25.9462 107.852 24.5584 107.852 22.702H105.852C105.852 24.5656 105.873 25.9885 105.915 26.9614L107.913 26.8746ZM107.852 22.702C107.852 18.7011 108.2 13.3252 108.901 6.56111L106.912 6.35489C106.207 13.1481 105.852 18.6016 105.852 22.702H107.852ZM108.901 6.56161C109.088 4.76862 109.717 3.6521 110.65 2.99923L109.503 1.36077C107.955 2.4439 107.138 4.17938 106.912 6.35439L108.901 6.56161ZM110.668 2.9864C111.732 2.20572 112.929 1.816 114.292 1.816V-0.184002C112.514 -0.184002 110.9 0.335615 109.485 1.37359L110.668 2.9864ZM114.292 1.816C115.589 1.816 117.689 1.77428 120.583 1.69159L120.526 -0.307592C117.633 -0.224948 115.558 -0.184002 114.292 -0.184002V1.816ZM120.566 1.69194L126.022 1.62993L125.999 -0.369939L120.543 -0.307936L120.566 1.69194ZM126.01 1.63C128.238 1.63 129.797 1.6926 130.722 1.80828L130.97 -0.17628C129.912 -0.308607 128.246 -0.370003 126.01 -0.370003V1.63ZM130.65 1.79658C131.858 2.03812 132.675 2.30452 133.166 2.56635L134.107 0.801646C133.358 0.402144 132.315 0.0898769 131.042 -0.164583L130.65 1.79658ZM133.213 2.59018C133.372 2.66424 133.455 2.74687 133.507 2.82755C133.561 2.9127 133.617 3.05267 133.63 3.28947L135.627 3.17853C135.598 2.67132 135.468 2.18097 135.191 1.74944C134.912 1.31346 134.52 0.993095 134.059 0.777815L133.213 2.59018ZM133.628 3.234C133.628 3.82988 133.438 4.44241 132.997 5.08731L134.647 6.21668C135.281 5.29093 135.628 4.29145 135.628 3.234H133.628ZM132.997 5.08732C132.68 5.55015 132.194 5.83 131.342 5.83V7.83C132.723 7.83 133.889 7.32451 134.647 6.21668L132.997 5.08732ZM131.342 5.83C130.096 5.83 128.283 5.74923 125.893 5.58437L125.755 7.57963C128.16 7.74543 130.026 7.83 131.342 7.83V5.83ZM125.893 5.58437C123.49 5.41862 121.643 5.334 120.368 5.334V7.334C121.573 7.334 123.364 7.4147 125.755 7.57963L125.893 5.58437ZM120.368 5.334C119.216 5.334 118.158 5.39793 117.195 5.52917L117.465 7.51083C118.322 7.39407 119.288 7.334 120.368 7.334V5.334ZM117.259 5.52254C116.089 5.6061 115.122 5.75733 114.466 6.03092L115.235 7.87707C115.57 7.73733 116.257 7.59923 117.401 7.51746L117.259 5.52254ZM114.466 6.03092C114.09 6.18726 113.744 6.42297 113.482 6.76505C113.218 7.11109 113.082 7.51103 113.048 7.92495L115.041 8.09104C115.048 8.00897 115.067 7.98525 115.071 7.97995C115.078 7.97069 115.114 7.9274 115.235 7.87707L114.466 6.03092ZM113.049 7.90759C112.595 12.4097 112.401 15.6186 112.487 17.4785L114.485 17.3855C114.406 15.6907 114.584 12.6169 115.039 8.10841L113.049 7.90759ZM113.357 18.4236C114.35 18.5531 115.344 18.618 116.338 18.618V16.618C115.431 16.618 114.524 16.5589 113.616 16.4404L113.357 18.4236ZM116.338 18.618C117.338 18.618 118.678 18.5316 120.344 18.365L120.145 16.375C118.504 16.539 117.24 16.618 116.338 16.618V18.618ZM120.344 18.365C120.742 18.3252 121.247 18.2847 121.861 18.2438L121.728 16.2482C121.101 16.29 120.573 16.3321 120.145 16.375L120.344 18.365ZM121.861 18.2438C122.454 18.2043 123.134 18.184 123.902 18.184V16.184C123.1 16.184 122.375 16.2051 121.728 16.2482L121.861 18.2438ZM123.902 18.184C124.312 18.184 125 18.2221 125.989 18.3045L126.155 16.3115C125.16 16.2285 124.401 16.184 123.902 16.184V18.184ZM126.04 18.3075L127.962 18.3695L128.026 16.3705L126.104 16.3085L126.04 18.3075ZM127.994 18.37C128.855 18.37 129.321 18.5299 129.55 18.694C129.718 18.8142 129.846 18.9951 129.846 19.416H131.846C131.846 18.4729 131.499 17.6308 130.716 17.069C129.994 16.5511 129.034 16.37 127.994 16.37V18.37ZM129.846 19.416C129.846 20.0524 129.676 20.4526 129.427 20.7243L130.901 22.0757C131.562 21.3554 131.846 20.4329 131.846 19.416H129.846ZM129.427 20.7243C129.184 20.9894 128.627 21.3045 127.537 21.5382L127.956 23.4938C129.18 23.2315 130.235 22.8026 130.901 22.0757L129.427 20.7243ZM127.565 21.5325C126.091 21.8041 123.627 21.95 120.12 21.95V23.95C123.64 23.95 126.26 23.8065 127.927 23.4995L127.565 21.5325ZM120.12 21.95H116.338V23.95H120.12V21.95ZM116.338 21.95C115.585 21.95 114.639 21.9102 113.495 21.8285L113.353 23.8235C114.524 23.9071 115.521 23.95 116.338 23.95V21.95ZM112.426 22.7705C112.383 23.5426 112.362 24.6393 112.362 26.05H114.362C114.362 24.6501 114.383 23.5974 114.423 22.8815L112.426 22.7705ZM112.362 26.05C112.362 27.8684 112.383 29.1748 112.426 29.9495L114.423 29.8385C114.383 29.1252 114.362 27.8689 114.362 26.05H112.362ZM112.425 29.9368C112.498 31.6305 113.141 33.0255 114.435 33.9599C115.681 34.8584 117.397 35.234 119.438 35.234V33.234C117.594 33.234 116.365 32.8863 115.606 32.3381C114.896 31.8258 114.475 31.0508 114.423 29.8512L112.425 29.9368ZM119.438 35.234C120.74 35.234 122.127 35.2747 123.599 35.3565L123.71 33.3595C122.205 33.276 120.781 33.234 119.438 33.234V35.234ZM123.627 35.3576L125.921 35.4196L125.975 33.4204L123.681 33.3584L123.627 35.3576ZM125.948 35.42C127.078 35.42 128.07 35.3124 128.896 35.0694L128.332 33.1506C127.753 33.321 126.968 33.42 125.948 33.42V35.42ZM128.947 35.053C129.623 34.8145 130.275 34.6172 130.903 34.4601L130.418 32.5199C129.723 32.6935 129.011 32.9095 128.281 33.167L128.947 35.053ZM130.942 34.4494C131.576 34.2629 132.12 34.18 132.582 34.18V32.18C131.887 32.18 131.149 32.3038 130.378 32.5306L130.942 34.4494ZM132.582 34.18C133.055 34.18 133.332 34.3403 133.548 34.6647L135.212 33.5553C134.602 32.6397 133.68 32.18 132.582 32.18V34.18ZM133.566 34.6912C133.86 35.1025 134 35.5404 134 36.032H136C136 35.1182 135.727 34.2748 135.194 33.5288L133.566 34.6912ZM165.726 19.044L165.454 18.0817L165.603 20.0365L165.726 19.044ZM172.422 21.958L171.686 22.6355L171.695 22.6455L171.705 22.6554L172.422 21.958ZM172.112 34.11L171.345 33.4682L171.337 33.4776L172.112 34.11ZM165.726 38.822L166.091 39.7528L166.105 39.7472L166.119 39.7411L165.726 38.822ZM161.138 39.814L161.029 38.8199L161.027 38.8201L161.138 39.814ZM145.204 39.194L145.007 40.1746L145.018 40.1766L145.028 40.1784L145.204 39.194ZM143.22 38.264L142.62 39.064L142.631 39.0727L142.643 39.081L143.22 38.264ZM142.228 36.094H143.228L143.227 36.0831L142.228 36.094ZM141.794 20.222L140.794 20.2402L140.794 20.2494L140.794 20.2586L141.794 20.222ZM141.732 16.812L142.731 16.7938L142.731 16.7808L141.732 16.812ZM142.414 2.49L141.666 1.82563L141.664 1.82838L142.414 2.49ZM144.77 1.25V0.25H144.724L144.679 0.254107L144.77 1.25ZM146.32 1.188L146.403 2.18464L146.416 2.18329L146.32 1.188ZM163.866 1.436L163.611 2.40307L163.621 2.40568L163.631 2.40808L163.866 1.436ZM169.818 4.66L170.57 4.00149L170.548 3.97643L170.525 3.95289L169.818 4.66ZM171.244 7.202L170.303 7.54075L170.307 7.55312L171.244 7.202ZM171.802 10.116H170.802V10.1262L170.802 10.1364L171.802 10.116ZM170.19 15.696L169.354 15.146L169.35 15.1532L169.345 15.1605L170.19 15.696ZM151.652 6.024L151.544 5.02979L151.541 5.03011L151.652 6.024ZM147.87 6.644L147.636 5.67161L146.844 5.86168L146.87 6.67573L147.87 6.644ZM148.242 18.362L147.242 18.3937L147.274 19.3893L148.269 19.3616L148.242 18.362ZM150.474 18.3L150.501 19.2996L150.539 19.2986L150.576 19.2947L150.474 18.3ZM158.41 17.37L158.554 18.3595L158.595 18.3536L158.634 18.3444L158.41 17.37ZM161.572 15.944L162.134 16.7709L162.145 16.7634L162.156 16.7555L161.572 15.944ZM164.114 13.65L163.352 13.0023L163.349 13.0059L164.114 13.65ZM164.796 9.93L163.859 10.2811L163.863 10.2913L163.867 10.3014L164.796 9.93ZM163.99 8.504L164.697 7.79689L164.69 7.79022L164.683 7.78368L163.99 8.504ZM148.428 34.668L147.428 34.6488L147.411 35.5378L148.292 35.6587L148.428 34.668ZM164.3 33.49L164.709 34.4025L164.716 34.3993L164.3 33.49ZM165.168 24.066L164.761 24.9798L164.761 24.9798L165.168 24.066ZM153.636 23.322L153.774 24.3124L153.782 24.3112L153.636 23.322ZM148.428 23.818L148.379 22.8192L147.395 22.8672L147.428 23.8513L148.428 23.818ZM148.49 31.444L147.491 31.3816L147.49 31.4032L147.49 31.4248L148.49 31.444ZM165.603 20.0365C168.483 20.3916 170.456 21.3003 171.686 22.6355L173.157 21.2805C171.494 19.4744 169.002 18.4404 165.848 18.0515L165.603 20.0365ZM171.705 22.6554C172.998 23.9849 173.654 25.6303 173.654 27.662H175.654C175.654 25.147 174.821 22.9897 173.138 21.2606L171.705 22.6554ZM173.654 27.662C173.654 29.6636 172.914 31.5922 171.345 33.4683L172.878 34.7517C174.698 32.5771 175.654 30.207 175.654 27.662H173.654ZM171.337 33.4776C169.794 35.3678 167.8 36.8449 165.332 37.9029L166.119 39.7411C168.859 38.5671 171.123 36.9029 172.886 34.7424L171.337 33.4776ZM165.36 37.8912C164.317 38.301 162.884 38.6182 161.029 38.8199L161.246 40.8081C163.193 40.5964 164.819 40.2524 166.091 39.7528L165.36 37.8912ZM161.027 38.8201C159.206 39.0225 157.321 39.124 155.372 39.124V41.124C157.39 41.124 159.349 41.0189 161.248 40.8079L161.027 38.8201ZM155.372 39.124C152.128 39.124 148.797 38.8199 145.379 38.2096L145.028 40.1784C148.554 40.8081 152.002 41.124 155.372 41.124V39.124ZM145.4 38.2134C144.956 38.1248 144.424 37.8899 143.796 37.447L142.643 39.081C143.421 39.6301 144.211 40.0152 145.007 40.1746L145.4 38.2134ZM143.82 37.464C143.45 37.1869 143.228 36.7837 143.228 36.094H141.228C141.228 37.3056 141.666 38.3491 142.62 39.064L143.82 37.464ZM143.227 36.0831C143.186 32.2678 143.041 26.9672 142.793 20.1854L140.794 20.2586C141.042 27.0342 141.186 32.3149 141.228 36.1049L143.227 36.0831ZM142.793 20.2038L142.731 16.7938L140.732 16.8302L140.794 20.2402L142.793 20.2038ZM142.731 16.7808C142.566 11.494 142.484 7.35199 142.484 4.35H140.484C140.484 7.38267 140.567 11.5486 140.732 16.8432L142.731 16.7808ZM142.484 4.35C142.484 4.18203 142.595 3.79533 143.163 3.15162L141.664 1.82838C140.992 2.59 140.484 3.4433 140.484 4.35H142.484ZM143.161 3.15436C143.67 2.58165 144.228 2.30338 144.86 2.24589L144.679 0.254107C143.493 0.361952 142.48 0.910348 141.666 1.82564L143.161 3.15436ZM144.77 2.25C145.332 2.25 145.877 2.22835 146.403 2.18454L146.236 0.191452C145.77 0.230312 145.281 0.25 144.77 0.25V2.25ZM146.416 2.18329C151.095 1.72785 154.167 1.506 155.682 1.506V-0.494002C154.054 -0.494002 150.885 -0.261189 146.223 0.192702L146.416 2.18329ZM155.682 1.506C158.718 1.506 161.357 1.80992 163.611 2.40307L164.12 0.468923C161.662 -0.177924 158.845 -0.494002 155.682 -0.494002V1.506ZM163.631 2.40808C165.87 2.94847 167.684 3.94057 169.11 5.3671L170.525 3.95289C168.81 2.23809 166.656 1.08085 164.1 0.463915L163.631 2.40808ZM169.065 5.3185C169.544 5.86571 169.963 6.59655 170.303 7.54072L172.184 6.86328C171.78 5.74078 171.249 4.77696 170.57 4.00149L169.065 5.3185ZM170.307 7.55312C170.642 8.44563 170.802 9.29818 170.802 10.116H172.802C172.802 9.03248 172.589 7.94236 172.18 6.85087L170.307 7.55312ZM170.802 10.1364C170.839 11.959 170.359 13.6201 169.354 15.146L171.025 16.246C172.252 14.3825 172.847 12.3237 172.801 10.0956L170.802 10.1364ZM169.345 15.1605C168.4 16.6508 167.114 17.6124 165.454 18.0817L165.997 20.0063C168.14 19.4009 169.83 18.1305 171.034 16.2315L169.345 15.1605ZM156.054 4.776C154.609 4.776 153.106 4.86095 151.544 5.02979L151.759 7.0182C153.256 6.85637 154.687 6.776 156.054 6.776V4.776ZM151.541 5.03011C150.027 5.19835 148.723 5.41086 147.636 5.67161L148.103 7.61638C149.083 7.38113 150.3 7.18031 151.762 7.01788L151.541 5.03011ZM146.87 6.67573L147.242 18.3937L149.241 18.3303L148.869 6.61227L146.87 6.67573ZM148.269 19.3616L150.501 19.2996L150.446 17.3004L148.214 17.3624L148.269 19.3616ZM150.576 19.2947C154.175 18.9225 156.838 18.6107 158.554 18.3595L158.265 16.3805C156.592 16.6253 153.964 16.9335 150.371 17.3053L150.576 19.2947ZM158.634 18.3444C159.845 18.0651 161.012 17.534 162.134 16.7709L161.009 15.1171C160.065 15.7593 159.124 16.1789 158.185 16.3956L158.634 18.3444ZM162.156 16.7555C163.241 15.9744 164.153 15.1554 164.878 14.2941L163.349 13.0059C162.751 13.7152 161.969 14.4256 160.987 15.1325L162.156 16.7555ZM164.875 14.2976C165.249 13.8584 165.556 13.4433 165.774 13.058C165.981 12.6927 166.168 12.2531 166.168 11.79H164.168C164.168 11.7403 164.178 11.8173 164.034 12.072C163.901 12.3067 163.681 12.6149 163.352 13.0024L164.875 14.2976ZM166.168 11.79C166.168 11.0333 166.016 10.2876 165.724 9.55861L163.867 10.3014C164.071 10.8124 164.168 11.3067 164.168 11.79H166.168ZM165.732 9.57888C165.465 8.86725 165.135 8.23534 164.697 7.79689L163.282 9.21111C163.423 9.35133 163.63 9.67008 163.859 10.2811L165.732 9.57888ZM164.683 7.78368C163.487 6.63137 162.222 5.81164 160.886 5.38197L160.274 7.28603C161.251 7.60035 162.261 8.22729 163.296 9.22432L164.683 7.78368ZM160.886 5.38197C159.592 4.96605 157.968 4.776 156.054 4.776V6.776C157.859 6.776 159.253 6.95795 160.274 7.28603L160.886 5.38197ZM148.292 35.6587C150.439 35.9535 152.49 36.102 154.442 36.102V34.102C152.591 34.102 150.632 33.9612 148.564 33.6773L148.292 35.6587ZM154.442 36.102C158.683 36.102 162.129 35.5589 164.709 34.4025L163.89 32.5775C161.675 33.5705 158.549 34.102 154.442 34.102V36.102ZM164.716 34.3993C166.104 33.7642 167.185 32.8244 167.909 31.5727C168.627 30.3303 168.958 28.8447 168.958 27.166H166.958C166.958 28.5873 166.678 29.7057 166.177 30.5713C165.682 31.4276 164.934 32.0998 163.883 32.5807L164.716 34.3993ZM168.958 27.166C168.958 25.3128 167.541 24.0265 165.574 23.1522L164.761 24.9798C166.514 25.7588 166.958 26.5392 166.958 27.166H168.958ZM165.574 23.1522C163.579 22.2655 161.435 21.826 159.154 21.826V23.826C161.171 23.826 163.036 24.2131 164.761 24.9798L165.574 23.1522ZM159.154 21.826C157.639 21.826 155.746 21.9984 153.489 22.3328L153.782 24.3112C155.989 23.9842 157.775 23.826 159.154 23.826V21.826ZM153.497 22.3316C151.748 22.5757 150.042 22.7381 148.379 22.8192L148.476 24.8168C150.203 24.7326 151.968 24.5643 153.774 24.3124L153.497 22.3316ZM147.428 23.8513C147.511 26.3368 147.552 27.8889 147.552 28.53H149.552C149.552 27.8484 149.509 26.2592 149.427 23.7847L147.428 23.8513ZM147.552 28.53C147.552 29.8059 147.531 30.7522 147.491 31.3816L149.488 31.5064C149.531 30.8132 149.552 29.8168 149.552 28.53H147.552ZM147.49 31.4248L147.428 34.6488L149.427 34.6872L149.489 31.4632L147.49 31.4248ZM209.656 39.07L210.456 38.47L210.45 38.4626L209.656 39.07ZM208.292 36.776L207.373 37.1699L207.376 37.1782L207.38 37.1864L208.292 36.776ZM207.114 33.676L208.059 33.35L208.051 33.3271L208.042 33.3046L207.114 33.676ZM206.37 31.816L205.429 32.1547L205.435 32.1712L205.441 32.1874L206.37 31.816ZM205.068 29.15L205.9 28.5953L205.55 28.0709L204.927 28.16L205.068 29.15ZM195.644 29.646L195.567 30.6431L195.587 30.6446L195.607 30.6453L195.644 29.646ZM193.226 29.522L193.146 30.5188L193.186 30.522H193.226V29.522ZM188.266 29.274V28.274H187.766L187.466 28.674L188.266 29.274ZM186.964 31.382L186.069 30.9348L186.059 30.9551L186.05 30.9759L186.964 31.382ZM185.662 34.73L184.721 34.3903L184.717 34.4029L185.662 34.73ZM183.74 39.318L184.597 39.8325L184.601 39.8267L183.74 39.318ZM179.028 39.69L178.542 40.5642L178.571 40.5799L178.6 40.5937L179.028 39.69ZM177.912 38.016L176.933 37.81L176.912 37.9119V38.016H177.912ZM179.462 33.056L178.539 32.6698L178.535 32.6808L179.462 33.056ZM182.624 25.988L183.531 26.4095L183.541 26.3879L183.55 26.3659L182.624 25.988ZM185.104 19.912L186.03 20.2899L186.035 20.2777L185.104 19.912ZM188.824 10.984L187.918 10.5611L187.912 10.5736L188.824 10.984ZM193.35 2.18L194.227 2.6611L194.236 2.64432L194.244 2.62721L193.35 2.18ZM194.59 0.939997L195.086 1.80824L195.109 1.79529L195.131 1.78117L194.59 0.939997ZM198.186 0.567998L197.835 1.50433L197.9 1.52896L197.969 1.54418L198.186 0.567998ZM199.054 1.064L198.286 1.70418L198.315 1.73903L198.347 1.77111L199.054 1.064ZM199.984 2.428L199.122 2.93502L199.132 2.95168L199.142 2.96795L199.984 2.428ZM203.58 9.186L202.661 9.57992L202.664 9.58681L202.667 9.59365L203.58 9.186ZM207.486 18.796L206.552 19.1544L206.556 19.1644L207.486 18.796ZM208.788 22.082L209.72 21.7195L209.718 21.7136L208.788 22.082ZM211.764 29.584L210.838 29.9619L210.843 29.9734L210.848 29.9848L211.764 29.584ZM214.616 35.04L215.468 34.5159L215.464 34.51L214.616 35.04ZM214.678 39.566L215.329 40.3253L215.333 40.3217L214.678 39.566ZM203.27 24.066L203.497 25.0398L204.701 24.7589L204.175 23.6402L203.27 24.066ZM200.418 16.75L199.472 17.0757L199.476 17.0863L200.418 16.75ZM196.574 7.884L197.437 7.37912L196.4 5.60614L195.644 7.51595L196.574 7.884ZM193.102 15.572L193.985 16.0416L193.993 16.0258L194.001 16.0097L193.102 15.572ZM189.568 24.004L188.627 23.6657L188.204 24.8413L189.444 24.9963L189.568 24.004ZM210.45 38.4626C209.961 37.8223 209.545 37.1241 209.204 36.3656L207.38 37.1864C207.783 38.0813 208.276 38.9123 208.862 39.6774L210.45 38.4626ZM209.211 36.3821C208.851 35.5425 208.467 34.5329 208.059 33.35L206.169 34.002C206.587 35.2164 206.989 36.2735 207.373 37.1699L209.211 36.3821ZM208.042 33.3046C207.96 33.0979 207.712 32.4779 207.298 31.4446L205.441 32.1874C205.855 33.2207 206.103 33.8407 206.185 34.0474L208.042 33.3046ZM207.311 31.4773C206.917 30.3844 206.45 29.4199 205.9 28.5953L204.236 29.7047C204.678 30.3681 205.078 31.1809 205.429 32.1547L207.311 31.4773ZM204.927 28.16C202.345 28.5288 200.269 28.708 198.682 28.708V30.708C200.402 30.708 202.582 30.5152 205.209 30.1399L204.927 28.16ZM198.682 28.708C197.787 28.708 196.787 28.6877 195.681 28.6467L195.607 30.6453C196.733 30.687 197.758 30.708 198.682 30.708V28.708ZM195.721 28.6489C194.64 28.5659 193.803 28.522 193.226 28.522V30.522C193.723 30.522 194.498 30.5608 195.567 30.6431L195.721 28.6489ZM193.306 28.5252C191.228 28.3589 189.544 28.274 188.266 28.274V30.274C189.468 30.274 191.091 30.3544 193.146 30.5188L193.306 28.5252ZM187.466 28.674C186.934 29.3836 186.468 30.1375 186.069 30.9348L187.858 31.8292C188.204 31.1385 188.606 30.487 189.066 29.874L187.466 28.674ZM186.05 30.9759C185.705 31.7535 185.261 32.8966 184.721 34.3904L186.602 35.0696C187.138 33.5874 187.562 32.4985 187.878 31.7881L186.05 30.9759ZM184.717 34.4029C183.976 36.5441 183.362 37.9922 182.879 38.8093L184.601 39.8267C185.193 38.8252 185.86 37.2146 186.607 35.0571L184.717 34.4029ZM182.882 38.8035C182.769 38.9918 182.478 39.248 181.57 39.248V41.248C182.811 41.248 183.966 40.8842 184.597 39.8325L182.882 38.8035ZM181.57 39.248C180.802 39.248 180.101 39.0919 179.456 38.7863L178.6 40.5937C179.525 41.0321 180.52 41.248 181.57 41.248V39.248ZM179.514 38.8158C179.008 38.5347 178.912 38.2728 178.912 38.016H176.912C176.912 39.1645 177.56 40.0186 178.542 40.5642L179.514 38.8158ZM178.89 38.222C179.207 36.7178 179.705 35.1212 180.389 33.4312L178.535 32.6808C177.814 34.4628 177.278 36.1729 176.933 37.81L178.89 38.222ZM180.384 33.4421C181.121 31.682 182.169 29.3391 183.531 26.4095L181.717 25.5665C180.351 28.5062 179.291 30.8754 178.539 32.6699L180.384 33.4421ZM183.55 26.3659L186.03 20.2899L184.178 19.5341L181.698 25.6101L183.55 26.3659ZM186.035 20.2777C187.395 16.8156 188.628 13.8554 189.736 11.3944L187.912 10.5736C186.787 13.0726 185.541 16.0644 184.173 19.5463L186.035 20.2777ZM189.73 11.4069C190.875 8.95278 192.373 6.03844 194.227 2.6611L192.473 1.6989C190.607 5.10022 189.087 8.05522 187.918 10.5611L189.73 11.4069ZM194.244 2.62721C194.388 2.34078 194.644 2.06101 195.086 1.80824L194.094 0.0717539C193.379 0.480316 192.808 1.02722 192.455 1.73279L194.244 2.62721ZM195.131 1.78117C195.544 1.51519 195.997 1.382 196.512 1.382V-0.618004C195.622 -0.618004 194.793 -0.379201 194.049 0.0988182L195.131 1.78117ZM196.512 1.382C197.288 1.382 197.687 1.44891 197.835 1.50433L198.537 -0.368331C198.023 -0.560917 197.306 -0.618004 196.512 -0.618004V1.382ZM197.969 1.54418C198.166 1.58786 198.245 1.65533 198.286 1.70418L199.822 0.423814C199.45 -0.0233275 198.95 -0.286531 198.403 -0.408189L197.969 1.54418ZM198.347 1.77111C198.45 1.87425 198.701 2.21927 199.122 2.93502L200.846 1.92098C200.44 1.23139 200.071 0.667083 199.761 0.356892L198.347 1.77111ZM199.142 2.96795C200.519 5.11371 201.691 7.31765 202.661 9.57992L204.499 8.79208C203.485 6.42501 202.26 4.12362 200.826 1.88804L199.142 2.96795ZM202.667 9.59365C203.69 11.8845 204.984 15.0689 206.552 19.1543L208.42 18.4377C206.846 14.3391 205.537 11.1168 204.493 8.77835L202.667 9.59365ZM206.556 19.1644L207.858 22.4504L209.718 21.7136L208.416 18.4276L206.556 19.1644ZM207.856 22.4444C209.014 25.4235 210.009 27.9297 210.838 29.9619L212.69 29.2061C211.866 27.1876 210.876 24.6925 209.72 21.7196L207.856 22.4444ZM210.848 29.9848C211.733 32.0087 212.706 33.8711 213.768 35.57L215.464 34.51C214.459 32.9022 213.531 31.1273 212.68 29.1832L210.848 29.9848ZM213.764 35.5641C214.083 36.0817 214.306 36.4945 214.446 36.8101C214.599 37.1544 214.608 37.2841 214.608 37.272H216.608C216.608 36.8466 216.451 36.3976 216.274 35.9979C216.083 35.5695 215.81 35.073 215.468 34.5159L213.764 35.5641ZM214.608 37.272C214.608 38.0403 214.378 38.5024 214.023 38.8103L215.333 40.3217C216.218 39.5549 216.608 38.4877 216.608 37.272H214.608ZM214.027 38.8067C213.671 39.1118 213.157 39.31 212.384 39.31V41.31C213.512 41.31 214.527 41.0122 215.329 40.3253L214.027 38.8067ZM212.384 39.31C211.443 39.31 210.855 39.0024 210.456 38.47L208.856 39.67C209.697 40.791 210.928 41.31 212.384 41.31V39.31ZM204.175 23.6402C203.536 22.283 202.599 19.8851 201.36 16.4137L199.476 17.0863C200.716 20.5589 201.681 23.0383 202.365 24.4918L204.175 23.6402ZM201.363 16.4243C200.071 12.672 198.765 9.64872 197.437 7.37912L195.711 8.38888C196.946 10.5006 198.202 13.388 199.472 17.0757L201.363 16.4243ZM195.644 7.51595C194.872 9.4663 193.727 12.0034 192.203 15.1343L194.001 16.0097C195.535 12.8579 196.705 10.2697 197.504 8.25205L195.644 7.51595ZM192.219 15.1024C191.152 17.1078 189.955 19.9708 188.627 23.6657L190.509 24.3423C191.826 20.6799 192.985 17.9215 193.985 16.0416L192.219 15.1024ZM189.444 24.9963C192.136 25.3328 195.03 25.5 198.124 25.5V23.5C195.101 23.5 192.291 23.3366 189.692 23.0117L189.444 24.9963ZM198.124 25.5C200.345 25.5 202.148 25.3546 203.497 25.0398L203.043 23.0922C201.912 23.356 200.284 23.5 198.124 23.5V25.5ZM247.764 2.056L246.92 1.51908L246.914 1.52964L247.764 2.056ZM252.848 1.25L252.401 2.14443L252.401 2.14443L252.848 1.25ZM253.716 10.24L254.715 10.2955L254.715 10.294L253.716 10.24ZM253.716 25.988L252.717 26.0314L252.717 26.0334L253.716 25.988ZM253.902 37.024L252.904 36.9616L252.902 36.9928V37.024H253.902ZM252.786 39.008L253.448 39.7578L253.45 39.7554L252.786 39.008ZM247.454 39.566L246.98 40.4465L247.019 40.4676L247.06 40.4851L247.454 39.566ZM246.338 38.636L247.186 38.106L247.151 38.0504L247.11 37.9998L246.338 38.636ZM237.844 26.608L238.68 26.0589L238.679 26.0571L237.844 26.608ZM227.614 12.1L228.399 11.48L226.235 8.74125L226.62 12.2104L227.614 12.1ZM227.986 30.452L226.986 30.425L226.986 30.4383L227.986 30.452ZM227.738 36.404L228.729 36.5406L228.73 36.5333L227.738 36.404ZM226.622 39.194L225.87 38.5355L225.866 38.5391L226.622 39.194ZM221.972 39.38L221.18 39.9897L221.206 40.0239L221.235 40.0557L221.972 39.38ZM221.228 36.652L220.228 36.6764L220.229 36.6964L220.23 36.7164L221.228 36.652ZM221.538 29.026L220.541 28.9493L220.541 28.953L221.538 29.026ZM221.724 26.236L222.722 26.2984L222.722 26.2984L221.724 26.236ZM221.414 12.906L220.416 12.9671L220.417 12.9758L220.417 12.9844L221.414 12.906ZM222.096 1.622L221.511 0.81132L221.5 0.81933L221.489 0.827641L222.096 1.622ZM227.242 1.436L228.024 0.813071L227.875 0.625075L227.656 0.525631L227.242 1.436ZM241.688 21.4L242.526 20.8534L242.519 20.8435L242.512 20.8338L241.688 21.4ZM247.516 30.328L246.679 30.8746L248.326 33.3984L248.514 30.3904L247.516 30.328ZM247.454 20.718L248.454 20.6841L248.454 20.6841L247.454 20.718ZM247.268 15.758L248.267 15.7104L248.267 15.7065L247.268 15.758ZM247.958 5.156C247.958 4.11044 248.191 3.26646 248.614 2.58235L246.914 1.52964C246.263 2.58154 245.958 3.80422 245.958 5.156H247.958ZM248.608 2.59287C248.995 1.98414 249.517 1.692 250.306 1.692V-0.308C248.863 -0.308 247.69 0.309196 246.92 1.51912L248.608 2.59287ZM250.306 1.692C251.124 1.692 251.814 1.85118 252.401 2.14443L253.295 0.355573C252.394 -0.095176 251.39 -0.308 250.306 -0.308V1.692ZM252.401 2.14443C252.629 2.25847 252.754 2.38498 252.828 2.50849C252.903 2.63451 252.964 2.82075 252.964 3.11H254.964C254.964 2.53125 254.839 1.97348 254.543 1.4795C254.245 0.983013 253.811 0.613531 253.295 0.355572L252.401 2.14443ZM252.964 3.11C252.964 4.77779 252.883 7.1335 252.718 10.186L254.715 10.294C254.88 7.22917 254.964 4.83154 254.964 3.11H252.964ZM252.718 10.1845C252.552 13.164 252.468 15.3982 252.468 16.874H254.468C254.468 15.4564 254.549 13.268 254.715 10.2955L252.718 10.1845ZM252.468 16.874C252.468 19.1682 252.551 22.2225 252.717 26.0314L254.715 25.9446C254.55 22.1481 254.468 19.1265 254.468 16.874H252.468ZM252.717 26.0334C252.882 29.6687 252.964 32.3155 252.964 33.986H254.964C254.964 32.2672 254.881 29.582 254.715 25.9426L252.717 26.0334ZM252.964 33.986C252.964 35.3461 252.943 36.333 252.904 36.9616L254.9 37.0864C254.944 36.3924 254.964 35.3539 254.964 33.986H252.964ZM252.902 37.024C252.902 37.2811 252.761 37.6926 252.122 38.2606L253.45 39.7554C254.3 39.0007 254.902 38.0895 254.902 37.024H252.902ZM252.125 38.2582C251.686 38.6454 250.88 38.938 249.5 38.938V40.938C251.096 40.938 252.481 40.6106 253.448 39.7578L252.125 38.2582ZM249.5 38.938C248.818 38.938 248.276 38.8301 247.848 38.6469L247.06 40.4851C247.79 40.7979 248.612 40.938 249.5 40.938V38.938ZM247.928 38.6855C247.465 38.4362 247.263 38.2287 247.186 38.106L245.49 39.166C245.827 39.7047 246.368 40.1171 246.98 40.4465L247.928 38.6855ZM247.11 37.9998C245.204 35.6888 242.398 31.7187 238.68 26.0589L237.008 27.1571C240.73 32.8227 243.587 36.8712 245.567 39.2722L247.11 37.9998ZM238.679 26.0571C234.498 19.7245 231.07 14.8611 228.399 11.48L226.829 12.72C229.449 16.0349 232.841 20.8435 237.01 27.1589L238.679 26.0571ZM226.62 12.2104C226.946 15.1378 227.11 18.7358 227.11 23.012H229.11C229.11 18.6908 228.944 15.0142 228.608 11.9896L226.62 12.2104ZM227.11 23.012C227.11 24.9006 227.069 27.3706 226.986 30.425L228.986 30.479C229.069 27.416 229.11 24.9261 229.11 23.012H227.11ZM226.986 30.4383C226.945 33.4675 226.862 35.3918 226.747 36.2747L228.73 36.5333C228.863 35.5148 228.945 33.4712 228.986 30.4657L226.986 30.4383ZM226.748 36.2674C226.599 37.3431 226.28 38.0669 225.87 38.5355L227.375 39.8525C228.122 38.9985 228.546 37.8622 228.729 36.5406L226.748 36.2674ZM225.866 38.5391C225.593 38.8543 225.063 39.124 224.018 39.124V41.124C225.37 41.124 226.576 40.7737 227.378 39.8489L225.866 38.5391ZM224.018 39.124C223.286 39.124 222.915 38.9285 222.709 38.7043L221.235 40.0557C221.939 40.8235 222.931 41.124 224.018 41.124V39.124ZM222.765 38.7703C222.54 38.4779 222.306 37.8212 222.226 36.5876L220.23 36.7164C220.316 38.0455 220.578 39.2075 221.18 39.9897L222.765 38.7703ZM222.228 36.6276C222.188 34.9835 222.288 32.4812 222.535 29.099L220.541 28.953C220.292 32.3494 220.186 34.9311 220.228 36.6764L222.228 36.6276ZM222.535 29.1027C222.577 28.5574 222.64 27.6209 222.722 26.2984L220.726 26.1736C220.643 27.4964 220.582 28.4199 220.541 28.9493L222.535 29.1027ZM222.722 26.2984C222.806 24.9604 222.848 23.761 222.848 22.702H220.848C220.848 23.7097 220.808 24.8663 220.726 26.1736L222.722 26.2984ZM222.848 22.702C222.848 19.8176 222.702 16.5252 222.411 12.8276L220.417 12.9844C220.705 16.6441 220.848 19.8824 220.848 22.702H222.848ZM222.412 12.8449C222.164 8.79768 222.042 5.82643 222.042 3.916H220.042C220.042 5.8909 220.168 8.91298 220.416 12.9671L222.412 12.8449ZM222.042 3.916C222.042 3.19221 222.281 2.73967 222.704 2.41636L221.489 0.827641C220.506 1.57899 220.042 2.65579 220.042 3.916H222.042ZM222.682 2.43268C223.249 2.02305 223.89 1.816 224.638 1.816V-0.184002C223.485 -0.184002 222.431 0.146277 221.511 0.81132L222.682 2.43268ZM224.638 1.816C225.295 1.816 226.022 1.98003 226.828 2.34636L227.656 0.525631C226.643 0.0653035 225.634 -0.184002 224.638 -0.184002V1.816ZM226.46 2.05892C229.992 6.49497 234.792 13.1266 240.864 21.9662L242.512 20.8338C236.432 11.9828 231.601 5.30502 228.024 0.813071L226.46 2.05892ZM240.851 21.9466L246.679 30.8746L248.354 29.7814L242.526 20.8534L240.851 21.9466ZM248.514 30.3904C248.557 29.698 248.578 28.7438 248.578 27.538H246.578C246.578 28.7296 246.557 29.6353 246.518 30.2656L248.514 30.3904ZM248.578 27.538C248.578 25.4171 248.537 23.1324 248.454 20.6841L246.455 20.7519C246.537 23.181 246.578 25.4429 246.578 27.538H248.578ZM248.454 20.6841C248.371 18.2463 248.309 16.5863 248.267 15.7104L246.269 15.8056C246.31 16.6657 246.372 18.3124 246.455 20.7519L248.454 20.6841ZM248.267 15.7065C248.061 11.7094 247.958 8.19317 247.958 5.156H245.958C245.958 8.23616 246.062 11.7879 246.269 15.8095L248.267 15.7065ZM293.136 5.59L293.904 4.94981L293.85 4.88469L293.786 4.82963L293.136 5.59ZM293.818 10.426L293.111 9.71889L293.1 9.73029L293.088 9.74206L293.818 10.426ZM289.974 11.046L289.527 11.9404L289.527 11.9404L289.974 11.046ZM288.734 9.868L289.586 9.3439L289.576 9.32842L289.566 9.3133L288.734 9.868ZM286.998 8.442L286.435 9.26823L286.448 9.27715L286.461 9.28566L286.998 8.442ZM283.898 6.892L283.532 7.82275L283.547 7.82847L283.562 7.83374L283.898 6.892ZM275.652 7.388L276.054 8.3037L276.064 8.29911L275.652 7.388ZM271.56 10.302L270.803 9.64906L270.792 9.6612L270.782 9.67366L271.56 10.302ZM269.204 15.138L270.153 15.4542L270.155 15.4487L269.204 15.138ZM269.7 27.786L268.809 28.2405L268.815 28.2514L268.821 28.2623L269.7 27.786ZM274.288 32.56L273.771 33.416L273.779 33.4206L274.288 32.56ZM285.448 33.676L285.071 32.7498L285.058 32.755L285.448 33.676ZM289.044 31.692L288.514 30.844L288.498 30.8538L288.483 30.8641L289.044 31.692ZM291.338 30.328L290.891 29.4336L290.877 29.4403L290.864 29.4475L291.338 30.328ZM295.12 30.762L294.413 31.4691L294.425 31.4813L294.438 31.4931L295.12 30.762ZM294.128 35.722L294.76 36.4969L294.771 36.4882L294.128 35.722ZM289.788 38.636L290.212 39.5415L290.224 39.5361L290.235 39.5304L289.788 38.636ZM285.696 39.876L285.816 40.8687L285.829 40.8672L285.842 40.8654L285.696 39.876ZM271.746 38.078L271.32 38.9825L271.325 38.9848L271.746 38.078ZM265.05 33.118L264.227 33.6857L264.248 33.7171L264.272 33.7467L265.05 33.118ZM262.632 27.972L261.682 28.283L261.685 28.2935L261.689 28.3039L262.632 27.972ZM263.314 12.286L264.253 12.6306L264.253 12.6306L263.314 12.286ZM268.46 4.412L269.124 5.15941L269.13 5.15433L269.136 5.14915L268.46 4.412ZM273.978 1.436L274.25 2.39828L274.262 2.3948L273.978 1.436ZM287.246 1.746L286.831 2.65572L286.838 2.65901L287.246 1.746ZM292.368 6.23018C292.975 6.95931 293.359 7.49904 293.56 7.86685L295.316 6.90915C295.021 6.36762 294.537 5.70869 293.904 4.94981L292.368 6.23018ZM293.56 7.86685C293.748 8.21114 293.81 8.48116 293.81 8.69H295.81C295.81 8.07217 295.624 7.47419 295.316 6.90915L293.56 7.86685ZM293.81 8.69C293.81 8.7666 293.733 9.09673 293.111 9.71889L294.525 11.1331C295.226 10.4326 295.81 9.6054 295.81 8.69H293.81ZM293.088 9.74206C292.569 10.2957 292.195 10.418 291.958 10.418V12.418C292.961 12.418 293.827 11.879 294.548 11.1099L293.088 9.74206ZM291.958 10.418C291.217 10.418 290.727 10.3045 290.421 10.1516L289.527 11.9404C290.213 12.2835 291.046 12.418 291.958 12.418V10.418ZM290.421 10.1516C290.114 9.99794 289.832 9.7449 289.586 9.3439L287.882 10.3921C288.297 11.0658 288.842 11.5981 289.527 11.9404L290.421 10.1516ZM289.566 9.3133C289.189 8.74722 288.441 8.17496 287.535 7.59834L286.461 9.28566C287.374 9.86637 287.783 10.2448 287.902 10.4227L289.566 9.3133ZM287.561 7.61577C286.574 6.94254 285.463 6.38897 284.234 5.95026L283.562 7.83374C284.648 8.22169 285.603 8.70146 286.435 9.26823L287.561 7.61577ZM284.264 5.96125C283.018 5.47198 281.818 5.21 280.674 5.21V7.21C281.514 7.21 282.463 7.40268 283.532 7.82275L284.264 5.96125ZM280.674 5.21C278.896 5.21 277.082 5.6435 275.24 6.47689L276.064 8.29911C277.694 7.56183 279.228 7.21 280.674 7.21V5.21ZM275.25 6.47235C273.442 7.26621 271.949 8.3198 270.803 9.64906L272.317 10.9549C273.238 9.88686 274.473 8.99779 276.054 8.30364L275.25 6.47235ZM270.782 9.67366C269.805 10.884 268.973 12.6265 268.254 14.8273L270.155 15.4487C270.84 13.3508 271.579 11.8694 272.338 10.9303L270.782 9.67366ZM268.255 14.8218C267.524 17.0149 267.15 19.1268 267.15 21.152H269.15C269.15 19.3745 269.478 17.4771 270.153 15.4542L268.255 14.8218ZM267.15 21.152C267.15 23.6985 267.7 26.0667 268.809 28.2405L270.591 27.3315C269.633 25.4546 269.15 23.4002 269.15 21.152H267.15ZM268.821 28.2623C269.983 30.4072 271.639 32.1278 273.771 33.4159L274.805 31.7041C272.969 30.5948 271.567 29.1328 270.579 27.3097L268.821 28.2623ZM273.779 33.4206C275.986 34.7268 278.587 35.358 281.542 35.358V33.358C278.876 33.358 276.641 32.7905 274.797 31.6994L273.779 33.4206ZM281.542 35.358C283.166 35.358 284.608 35.1173 285.838 34.597L285.058 32.755C284.139 33.1441 282.977 33.358 281.542 33.358V35.358ZM285.825 34.6021C287.021 34.115 288.281 33.4165 289.605 32.5199L288.483 30.8641C287.244 31.7035 286.107 32.3277 285.071 32.7499L285.825 34.6021ZM289.574 32.54C290.561 31.9231 291.304 31.4822 291.812 31.2085L290.864 29.4475C290.298 29.7525 289.511 30.2209 288.514 30.844L289.574 32.54ZM291.785 31.2224C292.213 31.0084 292.699 30.894 293.26 30.894V28.894C292.416 28.894 291.62 29.069 290.891 29.4336L291.785 31.2224ZM293.26 30.894C293.596 30.894 293.975 31.0308 294.413 31.4691L295.827 30.0549C295.108 29.3359 294.247 28.894 293.26 28.894V30.894ZM294.438 31.4931C294.95 31.9714 295.05 32.3042 295.05 32.498H297.05C297.05 31.5345 296.53 30.71 295.802 30.0309L294.438 31.4931ZM295.05 32.498C295.05 33.1446 294.666 33.9653 293.485 34.9558L294.771 36.4882C296.152 35.3293 297.05 34.0008 297.05 32.498H295.05ZM293.496 34.9471C291.963 36.1978 290.578 37.1227 289.341 37.7416L290.235 39.5304C291.643 38.8266 293.152 37.8089 294.76 36.4969L293.496 34.9471ZM289.364 37.7305C288.127 38.3103 286.857 38.6946 285.551 38.8866L285.842 40.8654C287.346 40.6441 288.804 40.2017 290.212 39.5415L289.364 37.7305ZM285.576 38.8833C284.267 39.0419 282.555 39.124 280.426 39.124V41.124C282.596 41.124 284.397 41.0408 285.816 40.8687L285.576 38.8833ZM280.426 39.124C277.738 39.124 274.988 38.4821 272.168 37.1712L271.325 38.9848C274.373 40.4019 277.41 41.124 280.426 41.124V39.124ZM272.172 37.1735C269.378 35.8563 267.281 34.2866 265.828 32.4893L264.272 33.7467C265.961 35.8347 268.327 37.5717 271.32 38.9825L272.172 37.1735ZM265.873 32.5503C265.118 31.4555 264.347 29.8336 263.575 27.6401L261.689 28.3039C262.488 30.5744 263.328 32.3831 264.227 33.6857L265.873 32.5503ZM263.582 27.661C262.852 25.428 262.516 23.705 262.516 22.454H260.516C260.516 24.0136 260.924 25.9693 261.682 28.283L263.582 27.661ZM262.516 22.454C262.516 19.057 263.095 15.7844 264.253 12.6306L262.375 11.9414C261.136 15.3182 260.516 18.8243 260.516 22.454H262.516ZM264.253 12.6306C265.404 9.49449 267.035 7.01702 269.124 5.15941L267.796 3.66459C265.421 5.77497 263.621 8.54684 262.375 11.9414L264.253 12.6306ZM269.136 5.14915C270.495 3.90344 272.19 2.98118 274.25 2.3982L273.706 0.473791C271.384 1.13081 269.401 2.19256 267.784 3.67485L269.136 5.14915ZM274.262 2.3948C276.413 1.75739 278.467 1.444 280.426 1.444V-0.556001C278.252 -0.556001 276.007 -0.20806 273.694 0.477199L274.262 2.3948ZM280.426 1.444C282.965 1.444 285.09 1.8608 286.831 2.65569L287.661 0.836309C285.6 -0.1048 283.178 -0.556001 280.426 -0.556001V1.444ZM286.838 2.65901C288.676 3.4803 290.56 4.7044 292.487 6.35037L293.786 4.82963C291.744 3.08627 289.701 1.7477 287.654 0.832989L286.838 2.65901ZM314.066 39.07L313.771 40.0254L313.779 40.0279L313.787 40.0302L314.066 39.07ZM308.486 36.032L309.161 35.2939L309.151 35.2852L308.486 36.032ZM302.906 28.344L301.967 28.6891L301.97 28.6974L301.974 28.7058L302.906 28.344ZM301.728 15.076L300.784 14.7456L300.779 14.7602L300.774 14.7749L301.728 15.076ZM302.844 12.348L303.753 12.7647L303.758 12.7533L303.763 12.7419L302.844 12.348ZM303.402 10.984L302.486 10.5832L302.479 10.5978L302.473 10.6126L303.402 10.984ZM303.96 9.186L303.081 8.70891L302.998 8.86189L302.971 9.03394L303.96 9.186ZM307.928 5.032L307.357 4.21105L307.348 4.21704L307.928 5.032ZM314.066 1.87L314.403 2.81134L314.411 2.80853L314.419 2.8056L314.066 1.87ZM336.944 8.814L337.797 8.29295L337.79 8.2817L336.944 8.814ZM337.564 29.398L336.665 28.9603L336.66 28.9699L337.564 29.398ZM331.364 36.714L331.878 37.5715L331.896 37.5611L331.913 37.55L331.364 36.714ZM326.28 39.132L326.616 40.0737L326.28 39.132ZM307.804 22.206L308.804 22.2242L308.804 22.2107L308.804 22.1972L307.804 22.206ZM309.23 27.848L308.398 28.4027L308.407 28.4161L308.416 28.4292L309.23 27.848ZM314.066 32.622L313.445 33.4057L313.568 33.5032L313.715 33.5583L314.066 32.622ZM317.538 33.862L317.836 32.9075L317.836 32.9075L317.538 33.862ZM326.838 32.498L326.363 31.6181L326.363 31.6181L326.838 32.498ZM331.612 27.91L330.753 27.3982L330.749 27.405L330.745 27.4119L331.612 27.91ZM328.512 9.062L327.875 9.83296L327.882 9.83885L327.889 9.8446L328.512 9.062ZM324.854 7.326L324.605 8.29451L324.611 8.29614L324.854 7.326ZM310.966 10.984L310.177 10.3693L310.176 10.3709L310.966 10.984ZM321.568 39.062C318.92 39.062 316.515 38.7411 314.345 38.1098L313.787 40.0302C316.163 40.7216 318.759 41.062 321.568 41.062V39.062ZM314.361 38.1146C312.199 37.4463 310.478 36.4981 309.161 35.294L307.811 36.77C309.387 38.2113 311.386 39.2883 313.771 40.0254L314.361 38.1146ZM309.151 35.2852C306.601 33.0144 304.845 30.578 303.838 27.9822L301.974 28.7058C303.116 31.6487 305.08 34.3376 307.821 36.7788L309.151 35.2852ZM303.844 27.9989C302.866 25.3365 302.356 21.8885 302.356 17.618H300.356C300.356 22.0275 300.879 25.7302 301.967 28.6891L303.844 27.9989ZM302.356 17.618C302.356 16.8003 302.467 16.0555 302.681 15.3771L300.774 14.7749C300.492 15.6672 300.356 16.6171 300.356 17.618H302.356ZM302.672 15.4063C302.949 14.615 303.308 13.735 303.753 12.7647L301.935 11.9313C301.47 12.945 301.086 13.8836 300.784 14.7456L302.672 15.4063ZM303.763 12.7419C303.892 12.4407 304.082 11.9765 304.33 11.3554L302.473 10.6126C302.226 11.2315 302.044 11.6766 301.925 11.9541L303.763 12.7419ZM304.318 11.3848C304.631 10.6683 304.849 9.98381 304.948 9.33806L302.971 9.03394C302.906 9.46285 302.751 9.97704 302.486 10.5832L304.318 11.3848ZM304.839 9.66309C305.529 8.39184 306.726 7.11343 308.507 5.84695L307.348 4.21704C305.409 5.5959 303.962 7.08683 303.081 8.70891L304.839 9.66309ZM308.499 5.8529C310.328 4.58073 312.295 3.56712 314.403 2.81134L313.728 0.92866C311.455 1.74354 309.331 2.83794 307.357 4.21109L308.499 5.8529ZM314.419 2.8056C316.54 2.00519 318.338 1.63 319.832 1.63V-0.370003C318.019 -0.370003 315.973 0.0814696 313.713 0.934398L314.419 2.8056ZM319.832 1.63C327.559 1.63 332.895 4.25292 336.097 9.3463L337.79 8.2817C334.132 2.46307 328.059 -0.370003 319.832 -0.370003V1.63ZM336.09 9.335C337.952 12.3858 338.858 15.4111 338.858 18.424H340.858C340.858 14.9889 339.821 11.6076 337.797 8.293L336.09 9.335ZM338.858 18.424C338.858 22.4762 338.116 25.9794 336.665 28.9603L338.463 29.8357C340.07 26.534 340.858 22.7211 340.858 18.424H338.858ZM336.66 28.9699C335.243 31.9621 333.292 34.2525 330.815 35.878L331.913 37.55C334.726 35.7035 336.909 33.1165 338.468 29.8261L336.66 28.9699ZM330.849 35.8565C329.25 36.8162 327.615 37.5934 325.944 38.1903L326.616 40.0737C328.417 39.4306 330.171 38.5958 331.878 37.5715L330.849 35.8565ZM325.944 38.1903C324.284 38.783 322.829 39.062 321.568 39.062V41.062C323.117 41.062 324.804 40.721 326.616 40.0737L325.944 38.1903ZM306.804 22.1878C306.76 24.6095 307.266 26.7045 308.398 28.4027L310.062 27.2933C309.21 26.0155 308.765 24.3492 308.804 22.2242L306.804 22.1878ZM308.416 28.4292C309.526 29.9827 311.218 31.6408 313.445 33.4057L314.687 31.8383C312.533 30.1312 311.001 28.6067 310.044 27.2668L308.416 28.4292ZM313.715 33.5583C315.367 34.1779 316.548 34.6005 317.24 34.8165L317.836 32.9075C317.205 32.7102 316.071 32.3061 314.417 31.6857L313.715 33.5583ZM317.24 34.8165C318.009 35.057 318.835 35.172 319.708 35.172V33.172C319.01 33.172 318.389 33.0803 317.836 32.9075L317.24 34.8165ZM319.708 35.172C322.536 35.172 325.081 34.5834 327.313 33.3779L326.363 31.6181C324.462 32.6446 322.253 33.172 319.708 33.172V35.172ZM327.313 33.3779C329.535 32.178 331.266 30.52 332.479 28.4081L330.745 27.4119C329.726 29.1853 328.274 30.586 326.363 31.6181L327.313 33.3779ZM332.471 28.4218C333.726 26.3149 334.348 23.9662 334.348 21.4H332.348C332.348 23.6284 331.812 25.6197 330.753 27.3982L332.471 28.4218ZM334.348 21.4C334.348 18.2015 333.993 15.5819 333.227 13.5996L331.361 14.3204C332 15.9754 332.348 18.3159 332.348 21.4H334.348ZM333.227 13.5996C332.449 11.5858 331.065 9.81539 329.134 8.2794L327.889 9.8446C329.596 11.2019 330.734 12.6968 331.361 14.3204L333.227 13.5996ZM329.149 8.29104C328.059 7.39048 326.695 6.75542 325.096 6.35586L324.611 8.29614C325.989 8.64058 327.064 9.16285 327.875 9.83296L329.149 8.29104ZM325.103 6.35751C323.567 5.96249 321.932 5.768 320.204 5.768V7.768C321.782 7.768 323.248 7.94551 324.605 8.29449L325.103 6.35751ZM320.204 5.768C315.968 5.768 312.581 7.28561 310.177 10.3693L311.755 11.5987C313.732 9.06105 316.504 7.768 320.204 7.768V5.768ZM310.176 10.3709C307.848 13.3706 306.761 17.3549 306.804 22.2148L308.804 22.1972C308.764 17.6331 309.785 14.136 311.756 11.5971L310.176 10.3709Z" fill="black"/>
</g>
<defs>
<filter id="filter0_d_9_9" x="0.666016" y="0.381989" width="343.192" height="47.928" filterUnits="userSpaceOnUse" color-interpolation-filters="sRGB">
<feFlood flood-opacity="0" result="BackgroundImageFix"/>
<feColorMatrix in="SourceAlpha" type="matrix" values="0 0 0 0 0 0 0 0 0 0 0 0 0 0 0 0 0 0 127 0" result="hardAlpha"/>
<feOffset dy="4"/>
<feGaussianBlur stdDeviation="2"/>
<feComposite in2="hardAlpha" operator="out"/>
<feColorMatrix type="matrix" values="0 0 0 0 0 0 0 0 0 0 0 0 0 0 0 0 0 0 0.25 0"/>
<feBlend mode="normal" in2="BackgroundImageFix" result="effect1_dropShadow_9_9"/>
<feBlend mode="normal" in="SourceGraphic" in2="effect1_dropShadow_9_9" result="shape"/>
</filter>
</defs>
</svg>
